<svg viewBox="0 0 636.62 79.69" xmlns="http://www.w3.org/2000/svg"><g fill="#565757"><path d="m280.53 52.54q-5.67-6.23-5.64-17.09 0-11.42 5.94-17.89t16.49-6.44a20.12 20.12 0 0 1 4.88.54 34 34 0 0 1 4.1 1.34 6.74 6.74 0 0 0 2.37.7 1.64 1.64 0 0 0 1.68-1l.21-.76h1.88l.66 12.54h-1.88q-2.84-11-13.42-11a12.62 12.62 0 0 0 -9.24 3.35 18.53 18.53 0 0 0 -4.86 8.24 35.35 35.35 0 0 0 -1.42 9.76 33.45 33.45 0 0 0 1.58 10.55 17.41 17.41 0 0 0 5.06 8 12.83 12.83 0 0 0 8.77 3 15.11 15.11 0 0 0 7-1.41 11.54 11.54 0 0 0 4.22-3.47 26.08 26.08 0 0 0 2.66-4.76l1.74.91a18.88 18.88 0 0 1 -5.42 7.85q-3.73 3.27-11.26 3.25-10.44 0-16.1-6.21z"/><path d="m319.4 41.7q0-8.43 3.79-12.78t11.44-4.32q15.12 0 15.08 17.11t-15.24 17.1q-15.12-.04-15.07-17.11zm23.83.34q0-15.19-8.67-15.21a7 7 0 0 0 -6.49 3.78q-2.18 3.8-2.19 11.11 0 14.84 8.67 14.86t8.68-14.58z"/><path d="m385.34 54.86a1.75 1.75 0 0 0 1.26 1 13.56 13.56 0 0 0 3.27.28v2h-15.25v-2a13.58 13.58 0 0 0 3.14-.23 1.59 1.59 0 0 0 1.18-.94 7.16 7.16 0 0 0 .29-2.44v-16.93a8.63 8.63 0 0 0 -1.55-5.4 5.81 5.81 0 0 0 -4.91-2.07 8 8 0 0 0 -4.6 1.28 15.31 15.31 0 0 0 -3.6 3.59l-.05 19.44a7.34 7.34 0 0 0 .27 2.47 1.51 1.51 0 0 0 1.18.94 15.21 15.21 0 0 0 3.07.22v2h-15.26v-2a12.75 12.75 0 0 0 3.27-.27 1.63 1.63 0 0 0 1.22-1 8.6 8.6 0 0 0 .26-2.51l.05-20.76a4.77 4.77 0 0 0 -.41-2.41 1.85 1.85 0 0 0 -1.6-.59h-2.37v-2.07l8.23-1.37h1.95v5.16h.07a16.36 16.36 0 0 1 5.09-4.13 13.8 13.8 0 0 1 6.21-1.35q9.4 0 9.38 10.06l-.05 17.56a7.91 7.91 0 0 0 .26 2.47z"/><path d="m398.4 57.3q-2-1.68-2-5.65l.06-23.83h-5.06v-2.1q7.24-.75 9-10.71h2v10.59h7.73v2.23h-7.74l-.06 22.78a7.32 7.32 0 0 0 .86 4.08 3 3 0 0 0 2.61 1.23 5.63 5.63 0 0 0 2.3-.52 11 11 0 0 0 2-1.14l.76 1.67a25.53 25.53 0 0 1 -3.66 2.29 9.19 9.19 0 0 1 -4 .76 7.28 7.28 0 0 1 -4.8-1.68z"/><path d="m438.54 26.33a5.75 5.75 0 0 1 1.35 4 5 5 0 0 1 -1 3.28 4.42 4.42 0 0 1 -5.68.26 3.46 3.46 0 0 1 -.65-3.76 5.51 5.51 0 0 1 .83-1.19 1.7 1.7 0 0 0 .56-1c0-.42-.3-.63-.9-.63a4.42 4.42 0 0 0 -2.82 1.32 11.36 11.36 0 0 0 -2.63 3.58 14.59 14.59 0 0 0 -1.4 4.91v15.33a7.48 7.48 0 0 0 .3 2.54 1.82 1.82 0 0 0 1.36 1 17.83 17.83 0 0 0 3.55.25v2h-16v-2a13.75 13.75 0 0 0 3.27-.27 1.67 1.67 0 0 0 1.23-1 9.13 9.13 0 0 0 .25-2.51l.05-20.76a4.77 4.77 0 0 0 -.41-2.41 1.85 1.85 0 0 0 -1.6-.59h-2.37v-2.06l8.23-1.37h2v6.55h.07a21.31 21.31 0 0 1 3.5-4.94 6.73 6.73 0 0 1 5.09-2 5 5 0 0 1 3.82 1.47z"/><path d="m473.68 57.29a13.31 13.31 0 0 1 -2.68 1.31 11.36 11.36 0 0 1 -3.62.48 5.08 5.08 0 0 1 -3.17-.84c-.72-.56-1.15-1.77-1.28-3.63a22.66 22.66 0 0 1 -5 3.37 12.51 12.51 0 0 1 -5.43 1.13 10.19 10.19 0 0 1 -6.24-1.79 6.09 6.09 0 0 1 -2.39-5.2q0-4.87 5-8.48t14.16-5v-4.1a8.25 8.25 0 0 0 -1.41-5.29c-.95-1.17-2.59-1.75-4.91-1.76a10.35 10.35 0 0 0 -4.39.9c-1.31.6-2 1.2-2 1.8a1.43 1.43 0 0 0 .66 1 5.1 5.1 0 0 1 1 1 2.62 2.62 0 0 1 .38 1.57 3.2 3.2 0 0 1 -.84 2.33 3.14 3.14 0 0 1 -2.37.87 3.39 3.39 0 0 1 -2.54-1 3.76 3.76 0 0 1 -.94-2.72 6.63 6.63 0 0 1 1.44-4 10.14 10.14 0 0 1 4.33-3.06 18.74 18.74 0 0 1 7.08-1.16c3.53 0 6.13.73 7.79 2.18s2.5 4 2.49 7.53v16.51a8.21 8.21 0 0 0 .58 3.73 2.07 2.07 0 0 0 1.92 1 5 5 0 0 0 1.95-.49zm-22.22-3.16a6 6 0 0 0 4 1.23 8.64 8.64 0 0 0 3.73-.83 21.24 21.24 0 0 0 3.67-2.22v-11.49q-6.48 1.36-9.65 3.7a7.11 7.11 0 0 0 -3.19 5.95 4.62 4.62 0 0 0 1.44 3.66z"/><path d="m487.44 58.85a20.1 20.1 0 0 1 -2.75-.91 7.4 7.4 0 0 0 -2.44-.63 1.65 1.65 0 0 0 -1.08.31 2.93 2.93 0 0 0 -.73 1h-1.33l-.67-11.49h1.4a14.92 14.92 0 0 0 4 7.36 9.32 9.32 0 0 0 6.49 2.51 7.56 7.56 0 0 0 4.92-1.48 5.16 5.16 0 0 0 1.86-4.21 5 5 0 0 0 -1-3.25 8 8 0 0 0 -2.5-2.06q-1.47-.76-4.32-1.89l-1.74-.63a19.87 19.87 0 0 1 -6.22-3.68 6.94 6.94 0 0 1 -2-5.26 8.51 8.51 0 0 1 3.12-6.93 12.49 12.49 0 0 1 8.19-2.52 14.09 14.09 0 0 1 2.72.22 22.43 22.43 0 0 1 2.37.63 8.45 8.45 0 0 0 1.81.42 1.28 1.28 0 0 0 1-.31 2 2 0 0 0 .38-.59 1.48 1.48 0 0 0 .11-.35h1.25l.46 10.24h-1.39q-1.86-8.08-8.34-8.1a7.65 7.65 0 0 0 -4.71 1.38 4.35 4.35 0 0 0 -1.85 3.62 4.65 4.65 0 0 0 1.72 3.75 13.77 13.77 0 0 0 4.28 2.42l1.88.63a22.89 22.89 0 0 1 7.67 4.02 7.79 7.79 0 0 1 2.46 6.07 9.16 9.16 0 0 1 -3.3 7.31 12.55 12.55 0 0 1 -8.43 2.76 13 13 0 0 1 -3.29-.36z"/><path d="m513.29 57.6q-2-1.68-2-5.65l.06-23.83h-5.09v-2.12q7.24-.75 9-10.71h2v10.59h7.73v2.23h-7.74l-.06 22.78a7.28 7.28 0 0 0 .91 4.11 3 3 0 0 0 2.61 1.22 5.78 5.78 0 0 0 2.3-.51 10.41 10.41 0 0 0 2-1.15l.76 1.68a26.46 26.46 0 0 1 -3.66 2.29 9.2 9.2 0 0 1 -4 .75 7.22 7.22 0 0 1 -4.82-1.68z"/><path d="m557.81 42.59-22.15-.05q.12 6.48 2.3 10.24t7.76 3.79a9.37 9.37 0 0 0 6.42-2.08 12.29 12.29 0 0 0 3.5-5.35l1.94.84a15 15 0 0 1 -4.58 6.81c-2 1.72-5.09 2.57-9.14 2.56q-7.46 0-11.1-4.35t-3.62-12.41q0-8.3 3.79-12.85t11.09-4.53q13.8 0 13.75 16.76zm-6.47-2.24c0-4.42-.52-7.68-1.58-9.8s-2.94-3.17-5.63-3.18a6.74 6.74 0 0 0 -6.13 3.22q-2 3.24-2.33 9.72z"/><path d="m572.85 59.07a21 21 0 0 1 -2.75-.91 7.3 7.3 0 0 0 -2.43-.63 1.64 1.64 0 0 0 -1.08.31 3.07 3.07 0 0 0 -.74 1h-1.32l-.67-11.49h1.4a14.92 14.92 0 0 0 4 7.36 9.28 9.28 0 0 0 6.47 2.49 7.59 7.59 0 0 0 4.92-1.48 5.13 5.13 0 0 0 1.85-4.22 5 5 0 0 0 -1-3.24 7.93 7.93 0 0 0 -2.5-2.06 47 47 0 0 0 -4.31-1.89l-1.74-.63a19.87 19.87 0 0 1 -6.25-3.68 7 7 0 0 1 -2-5.26 8.51 8.51 0 0 1 3.12-6.93 12.49 12.49 0 0 1 8.18-2.52 14.17 14.17 0 0 1 2.72.22 23.09 23.09 0 0 1 2.37.63 8.45 8.45 0 0 0 1.81.42 1.24 1.24 0 0 0 1-.31 1.87 1.87 0 0 0 .39-.59 1.28 1.28 0 0 0 .1-.35h1.26l.46 10.24h-1.39c-1.25-5.4-4-8.1-8.34-8.11a7.65 7.65 0 0 0 -4.71 1.38 4.38 4.38 0 0 0 -1.86 3.62 4.69 4.69 0 0 0 1.77 3.73 13.77 13.77 0 0 0 4.28 2.42l1.88.63a22.89 22.89 0 0 1 7.69 4.06 7.8 7.8 0 0 1 2.46 6.07 9.16 9.16 0 0 1 -3.3 7.31 12.56 12.56 0 0 1 -8.44 2.76 13.13 13.13 0 0 1 -3.3-.35z"/></g><path d="m29 57.25-3.21-10.72h-16.17l-3.25 10.66h-5.94l13.79-42.65h7.44l13.51 42.73zm-17.94-15.53h13.31l-6.57-22.28z" fill="#00a3dc"/><path d="m56.25 24.78a14.93 14.93 0 0 1 4.64 2.7l-2.74 3.59a13.94 13.94 0 0 0 -3.37-1.84 10.7 10.7 0 0 0 -3.62-.59 7.08 7.08 0 0 0 -6.16 3.14c-1.47 2.1-2.21 5.22-2.22 9.34s.7 7.18 2.14 9.14a7.23 7.23 0 0 0 6.19 3 10.29 10.29 0 0 0 3.53-.58 18 18 0 0 0 3.6-1.88l2.59 3.73a15.54 15.54 0 0 1 -10 3.56 13 13 0 0 1 -10.43-4.48q-3.79-4.47-3.77-12.34a22.15 22.15 0 0 1 1.76-9.1 13.94 13.94 0 0 1 4.93-6.05 13.18 13.18 0 0 1 7.6-2.15 16.09 16.09 0 0 1 5.33.81z" fill="#00a3dc"/><path d="m88.75 52.73a4.21 4.21 0 0 0 2 1.46l-1.31 4a8.76 8.76 0 0 1 -4.08-1.43 6.54 6.54 0 0 1 -2.28-3.48q-3.3 4.89-9.74 4.87a10.43 10.43 0 0 1 -7.61-2.74 9.54 9.54 0 0 1 -2.73-7.17 9.36 9.36 0 0 1 3.77-8c2.5-1.86 6-2.77 10.63-2.76h5v-2.39c0-2.31-.55-4-1.66-5s-2.82-1.5-5.14-1.5a28.52 28.52 0 0 0 -8.79 1.71l-1.42-4.16a33.21 33.21 0 0 1 11.3-2.14q5.76 0 8.6 2.84c1.89 1.89 2.84 4.56 2.83 8v14.93a5.15 5.15 0 0 0 .63 2.96zm-6.37-3.95v-7.49h-4.25q-9 0-9.06 6.66a6.17 6.17 0 0 0 1.41 4.4 5.57 5.57 0 0 0 4.21 1.5q4.89.01 7.69-5.07z" fill="#00a3dc"/><path d="m122.67 11.73-.11 45.76h-5l-.56-4.49a11.78 11.78 0 0 1 -4 3.86 10.68 10.68 0 0 1 -5.39 1.38 10.53 10.53 0 0 1 -9.07-4.61c-2.15-3.06-3.23-7.17-3.21-12.33a23.86 23.86 0 0 1 1.57-8.92 13.86 13.86 0 0 1 4.47-6.08 11 11 0 0 1 6.82-2.18 11.67 11.67 0 0 1 8.78 4l.03-17.12zm-9.39 40.75a13.82 13.82 0 0 0 3.6-3.61v-16a12.46 12.46 0 0 0 -3.43-3.2 7.91 7.91 0 0 0 -4.11-1.09 6.59 6.59 0 0 0 -5.86 3.14q-2.08 3.15-2.1 9.41t1.89 9.42a6.13 6.13 0 0 0 5.51 3.11 8 8 0 0 0 4.5-1.18z" fill="#00a3dc"/><path d="m156.41 43.21-20.81-.05c.24 3.59 1.14 6.24 2.7 7.93a7.93 7.93 0 0 0 6.07 2.56 13.37 13.37 0 0 0 4.33-.65 17.48 17.48 0 0 0 4.16-2.16l2.46 3.41a18 18 0 0 1 -11.4 4.06q-6.81 0-10.61-4.48t-3.78-12.28a23.26 23.26 0 0 1 1.67-9 14.1 14.1 0 0 1 4.72-6.15 11.92 11.92 0 0 1 7.22-2.21c4.34 0 7.65 1.44 10 4.29s3.45 6.81 3.44 11.84c-.04.93-.09 1.9-.17 2.89zm-5.5-4.59q0-4.83-1.9-7.38a6.75 6.75 0 0 0 -5.76-2.55c-4.66 0-7.21 3.41-7.64 10.26h15.3z" fill="#00a3dc"/><path d="m202.4 27a10.48 10.48 0 0 1 2.4 7.29l-.06 23.41h-5.7l.06-22.6q0-6.33-4.57-6.33a6.12 6.12 0 0 0 -4.09 1.38 19.37 19.37 0 0 0 -3.6 4.36l-.06 23.16h-5.7l.06-22.6q0-6.32-4.57-6.33a6.23 6.23 0 0 0 -4.15 1.41 19.39 19.39 0 0 0 -3.54 4.33l-.06 23.16h-5.7l.08-32.64h4.9l.48 4.77q3.66-5.49 9.43-5.48a8.22 8.22 0 0 1 8.22 5.9 15.28 15.28 0 0 1 4.25-4.36 9.9 9.9 0 0 1 5.52-1.53 8.22 8.22 0 0 1 6.4 2.7z" fill="#00a3dc"/><path d="m219.54 10.55a3.82 3.82 0 0 1 1.11 2.79 3.68 3.68 0 0 1 -1.13 2.75 4.36 4.36 0 0 1 -5.76 0 3.64 3.64 0 0 1 -1.1-2.76 3.75 3.75 0 0 1 1.12-2.78 3.86 3.86 0 0 1 2.85-1.11 3.94 3.94 0 0 1 2.91 1.11zm0 14.56-.08 32.63h-5.7l.08-32.64z" fill="#00a3dc"/><path d="m251.38 53.15a4.21 4.21 0 0 0 2 1.46l-1.31 4a8.76 8.76 0 0 1 -4.07-1.47 6.54 6.54 0 0 1 -2.28-3.48q-3.3 4.89-9.74 4.87a10.43 10.43 0 0 1 -7.61-2.74 9.58 9.58 0 0 1 -2.77-7.13 9.36 9.36 0 0 1 3.77-8q3.75-2.79 10.63-2.76h5v-2.39c0-2.31-.55-4-1.66-4.95s-2.82-1.5-5.14-1.5a28.52 28.52 0 0 0 -8.79 1.71l-1.41-4.16a33 33 0 0 1 11.28-2.2q5.76 0 8.6 2.84c1.89 1.89 2.84 4.56 2.83 8v14.93a5.15 5.15 0 0 0 .67 2.97zm-6.38-3.95v-7.49h-4.28q-9 0-9.06 6.66a6.13 6.13 0 0 0 1.42 4.4 5.53 5.53 0 0 0 4.2 1.5q4.93.01 7.72-5.07z" fill="#00a3dc"/></svg>