<svg viewBox="0 0 636.62 79.69" xmlns="http://www.w3.org/2000/svg"><g fill="#565757"><path d="m140.81 52.53q-5.66-6.21-5.63-17.08 0-11.43 5.93-17.89t16.49-6.44a19.62 19.62 0 0 1 4.88.53 35.35 35.35 0 0 1 4.11 1.35 7 7 0 0 0 2.36.71 1.64 1.64 0 0 0 1.68-1l.21-.76h1.88l.67 12.55h-1.89q-2.82-11-13.41-11a12.67 12.67 0 0 0 -9.25 3.35 18.51 18.51 0 0 0 -4.84 8.24 35.33 35.33 0 0 0 -1.42 9.75 33.85 33.85 0 0 0 1.58 10.56 17.41 17.41 0 0 0 5.06 8 12.91 12.91 0 0 0 8.78 3.01 15.07 15.07 0 0 0 7-1.41 11.62 11.62 0 0 0 4.23-3.48 27 27 0 0 0 2.66-4.76l1.73.91a19 19 0 0 1 -5.42 7.86q-3.74 3.27-11.26 3.24-10.46-.01-16.13-6.24z"/><path d="m179.68 41.69q0-8.43 3.8-12.77t11.43-4.33q15.09.05 15.09 17.11t-15.24 17.1q-15.12-.03-15.08-17.11zm23.83.34q0-15.18-8.67-15.21a7 7 0 0 0 -6.49 3.78q-2.17 3.8-2.19 11.11 0 14.84 8.67 14.86t8.68-14.57z"/><path d="m245.63 54.86a1.72 1.72 0 0 0 1.25 1 13.49 13.49 0 0 0 3.27.29v2h-15.26v-2a14 14 0 0 0 3.14-.24 1.64 1.64 0 0 0 1.19-.93 7.54 7.54 0 0 0 .28-2.44v-16.93a8.68 8.68 0 0 0 -1.5-5.44 5.77 5.77 0 0 0 -4.91-2.06 8 8 0 0 0 -4.6 1.27 15.69 15.69 0 0 0 -3.64 3.62v19.44a7.87 7.87 0 0 0 .27 2.47 1.54 1.54 0 0 0 1.18 1 15.48 15.48 0 0 0 3.07.21v2h-15.25v-2a12.89 12.89 0 0 0 3.28-.27 1.63 1.63 0 0 0 1.22-1 8.7 8.7 0 0 0 .25-2.51l.05-20.76a4.49 4.49 0 0 0 -.41-2.4 1.83 1.83 0 0 0 -1.6-.6h-2.37v-2.12l8.22-1.38h1.95v5.15h.07a16.36 16.36 0 0 1 5.09-4.13 13.69 13.69 0 0 1 6.13-1.33q9.4 0 9.38 10.06l-.05 17.55a7.62 7.62 0 0 0 .3 2.48z"/><path d="m258.68 57.29c-1.32-1.11-2-3-2-5.64l.06-23.83h-5.08v-2.11q7.24-.74 9-10.7h2v10.59h7.74v2.23h-7.73l-.06 22.79a7.14 7.14 0 0 0 .86 4.07 3 3 0 0 0 2.61 1.23 5.66 5.66 0 0 0 2.3-.52 9.82 9.82 0 0 0 2-1.14l.76 1.67a24.47 24.47 0 0 1 -3.66 2.29 9.16 9.16 0 0 1 -4 .76 7.3 7.3 0 0 1 -4.8-1.69z"/><path d="m298.82 26.32a5.67 5.67 0 0 1 1.35 4.05 5 5 0 0 1 -1 3.27 3.66 3.66 0 0 1 -3 1.18 3.72 3.72 0 0 1 -2.68-.92 3.11 3.11 0 0 1 -.93-2.37 3 3 0 0 1 .28-1.39 5.21 5.21 0 0 1 .86-1.14 1.79 1.79 0 0 0 .56-1c0-.41-.3-.62-.91-.63a4.42 4.42 0 0 0 -2.82 1.32 11.46 11.46 0 0 0 -2.62 3.58 14.44 14.44 0 0 0 -1.41 4.91v15.33a7.14 7.14 0 0 0 .31 2.54 1.78 1.78 0 0 0 1.35 1 17.13 17.13 0 0 0 3.56.25v2h-15.95v-2a12.89 12.89 0 0 0 3.23-.3 1.63 1.63 0 0 0 1.22-1 8.7 8.7 0 0 0 .25-2.51v-20.76a4.49 4.49 0 0 0 -.41-2.4 1.83 1.83 0 0 0 -1.6-.6h-2.37v-2.12l8.22-1.37h1.95v6.56h.07a21.07 21.07 0 0 1 3.49-4.94 6.74 6.74 0 0 1 5.09-2 5.05 5.05 0 0 1 3.91 1.46z"/><path d="m334 57.28a13.9 13.9 0 0 1 -2.72 1.32 11.36 11.36 0 0 1 -3.62.48 5.16 5.16 0 0 1 -3.17-.85c-.72-.56-1.14-1.77-1.28-3.63a22.16 22.16 0 0 1 -5 3.37 12.71 12.71 0 0 1 -5.44 1.14 10.23 10.23 0 0 1 -6.23-1.8 6 6 0 0 1 -2.39-5.19q0-4.87 5-8.49t14.15-5.05v-4a8.2 8.2 0 0 0 -1.41-5.3c-.95-1.16-2.59-1.75-4.91-1.75a10.19 10.19 0 0 0 -4.39.89c-1.3.6-1.95 1.2-2 1.81a1.41 1.41 0 0 0 .66 1 5.77 5.77 0 0 1 1.05 1.05 2.59 2.59 0 0 1 .37 1.56 3.23 3.23 0 0 1 -.84 2.34 3.14 3.14 0 0 1 -2.37.86 3.37 3.37 0 0 1 -2.54-1 3.7 3.7 0 0 1 -.93-2.72 6.51 6.51 0 0 1 1.44-4 10 10 0 0 1 4.32-3.05 18.54 18.54 0 0 1 7.08-1.17q5.29 0 7.8 2.18t2.48 7.53v16.51a8 8 0 0 0 .59 3.73 2 2 0 0 0 1.91 1 5 5 0 0 0 2-.48zm-22.21-3.16a5.89 5.89 0 0 0 4 1.23 8.74 8.74 0 0 0 3.73-.82 22 22 0 0 0 3.67-2.23v-11.49c-4.32.92-7.55 2.15-9.66 3.7a7.13 7.13 0 0 0 -3.19 6 4.59 4.59 0 0 0 1.41 3.61z"/><path d="m347.72 58.85a23.89 23.89 0 0 1 -2.75-.91 7.22 7.22 0 0 0 -2.44-.64 1.67 1.67 0 0 0 -1.08.31 3 3 0 0 0 -.73 1h-1.33l-.66-11.5h1.39a14.88 14.88 0 0 0 4 7.36 9.25 9.25 0 0 0 6.49 2.53 7.5 7.5 0 0 0 4.92-1.48 5.16 5.16 0 0 0 1.86-4.21 5 5 0 0 0 -1-3.24 8.06 8.06 0 0 0 -2.5-2.07c-1-.51-2.41-1.14-4.32-1.89l-1.74-.63a20 20 0 0 1 -6.22-3.67 7 7 0 0 1 -2-5.27 8.45 8.45 0 0 1 3.11-6.92 12.57 12.57 0 0 1 8.2-2.53 14.91 14.91 0 0 1 2.71.22 22.43 22.43 0 0 1 2.37.63 8.08 8.08 0 0 0 1.81.43 1.3 1.3 0 0 0 1-.31 2 2 0 0 0 .38-.6 1.63 1.63 0 0 0 .11-.34h1.25l.45 10.21h-1.39q-1.86-8.08-8.34-8.1a7.54 7.54 0 0 0 -4.71 1.38 4.32 4.32 0 0 0 -1.85 3.62 4.67 4.67 0 0 0 1.74 3.77 14.07 14.07 0 0 0 4.28 2.41l1.88.63a22.79 22.79 0 0 1 7.69 4.06 7.75 7.75 0 0 1 2.46 6.07 9.17 9.17 0 0 1 -3.29 7.31 12.62 12.62 0 0 1 -8.47 2.73 14.06 14.06 0 0 1 -3.28-.36z"/><path d="m373.57 57.59q-2-1.68-2-5.65l.06-23.83h-5.08v-2.11q7.25-.75 9-10.71h2v10.59h7.73v2.23h-7.74l-.06 22.78a7.23 7.23 0 0 0 .87 4.08 3 3 0 0 0 2.65 1.25 5.7 5.7 0 0 0 2.3-.52 10.85 10.85 0 0 0 2-1.14l.76 1.67a25 25 0 0 1 -3.66 2.29 9.19 9.19 0 0 1 -4 .76 7.28 7.28 0 0 1 -4.83-1.69z"/><path d="m418.1 42.59-22.16-.06q.12 6.48 2.31 10.25t7.75 3.78a9.31 9.31 0 0 0 6.41-2.07 12.33 12.33 0 0 0 3.5-5.36l1.95.84a15.17 15.17 0 0 1 -4.55 6.82q-3.07 2.57-9.13 2.55-7.45 0-11.1-4.35c-2.44-2.88-3.64-7-3.63-12.41s1.28-9.81 3.8-12.84 6.21-4.55 11.09-4.54q13.78 0 13.75 16.76zm-6.48-2.25c0-4.41-.51-7.68-1.58-9.79s-2.94-3.18-5.63-3.19a6.75 6.75 0 0 0 -6.14 3.23q-2 3.23-2.33 9.71z"/><path d="m433.14 59.07a23.27 23.27 0 0 1 -2.75-.91 7.22 7.22 0 0 0 -2.44-.64 1.71 1.71 0 0 0 -1.08.31 3 3 0 0 0 -.73 1h-1.33l-.67-11.5h1.4a14.88 14.88 0 0 0 4 7.36 9.23 9.23 0 0 0 6.46 2.5 7.5 7.5 0 0 0 5-1.48 5.16 5.16 0 0 0 1.86-4.21 5 5 0 0 0 -1-3.24 8.17 8.17 0 0 0 -2.5-2.07q-1.47-.77-4.32-1.89l-1.74-.63a20 20 0 0 1 -6.3-3.67 7 7 0 0 1 -2-5.27 8.5 8.5 0 0 1 3.12-6.92 12.49 12.49 0 0 1 8.19-2.52 14.21 14.21 0 0 1 2.72.21 22.43 22.43 0 0 1 2.37.63 8.08 8.08 0 0 0 1.81.43 1.32 1.32 0 0 0 1-.31 2 2 0 0 0 .38-.6 1.63 1.63 0 0 0 .11-.34h1.25l.46 10.24h-1.41q-1.86-8.08-8.34-8.1a7.52 7.52 0 0 0 -4.66 1.38 4.32 4.32 0 0 0 -1.85 3.62 4.67 4.67 0 0 0 1.76 3.73 13.75 13.75 0 0 0 4.28 2.41l1.88.63a22.7 22.7 0 0 1 7.69 4.07 7.78 7.78 0 0 1 2.46 6.06 9.15 9.15 0 0 1 -3.3 7.31 12.61 12.61 0 0 1 -8.43 2.77 14.06 14.06 0 0 1 -3.35-.36z"/></g><path d="m32.25 38.17q2.75 2.36 2.75 7.31 0 12.15-16.94 12.1h-11.77l.11-42.67h10.09q8.11 0 12.41 2.7a8.88 8.88 0 0 1 4.29 8.12 8.74 8.74 0 0 1 -2.34 6.19 10.38 10.38 0 0 1 -5.68 3.14 14.35 14.35 0 0 1 7.08 3.11zm-6.25 13.17q2.76-1.53 2.77-5.87c0-2.81-.88-4.84-2.65-6.08a11.83 11.83 0 0 0 -6.93-1.87h-7v15.36h5.81q5.24.01 8-1.54zm-13.77-31.8-.03 13.46h6.44a9.79 9.79 0 0 0 6.1-1.78 6 6 0 0 0 2.4-5.07c0-2.48-.83-4.19-2.5-5.15s-4.19-1.43-7.58-1.44z" fill="#00a3dc"/><path d="m42.64 56.5a7.32 7.32 0 0 1 -1.82-5.3l.1-39.33 5.7-.67-.1 39.89a3.32 3.32 0 0 0 .46 2 1.85 1.85 0 0 0 1.58.62 5.58 5.58 0 0 0 2.1-.36l1.48 4a9.31 9.31 0 0 1 -4.52 1.11 6.62 6.62 0 0 1 -4.98-1.96z" fill="#00a3dc"/><path d="m79.8 28.94q3.81 4.59 3.78 12.46a21.61 21.61 0 0 1 -1.76 8.94 13.6 13.6 0 0 1 -5 6 14 14 0 0 1 -7.82 2.11q-6.87 0-10.7-4.61t-3.83-12.46a21.77 21.77 0 0 1 1.76-8.94 13.52 13.52 0 0 1 5-6 14.08 14.08 0 0 1 7.87-2.12q6.9.03 10.7 4.62zm-19.2 12.46q0 12.45 8.4 12.47t8.45-12.49q0-12.45-8.33-12.47t-8.52 12.49z" fill="#00a3dc"/><path d="m116.88 26.68a17.55 17.55 0 0 1 -4.09.8c-1.49.12-3.31.17-5.45.17q5.75 2.61 5.73 8.25a10.38 10.38 0 0 1 -3.36 8q-3.36 3.1-9.11 3.1a13.22 13.22 0 0 1 -4.15-.63 3.46 3.46 0 0 0 -1.18 1.33 3.68 3.68 0 0 0 -.44 1.7q0 2.6 4.27 2.6h5.2a13.75 13.75 0 0 1 5.82 1.19 9.42 9.42 0 0 1 3.88 3.27 8 8 0 0 1 1.38 4.65 8.25 8.25 0 0 1 -3.92 7.33q-3.86 2.56-11.36 2.56a26 26 0 0 1 -8.32-1.1 7.88 7.88 0 0 1 -4.36-3.27 10.66 10.66 0 0 1 -1.29-5.63h5.14a5.69 5.69 0 0 0 .73 3.18 4.68 4.68 0 0 0 2.66 1.74 19.07 19.07 0 0 0 5.44.6q5.15 0 7.35-1.25a4.12 4.12 0 0 0 2.2-3.8 3.9 3.9 0 0 0 -1.71-3.47 8.45 8.45 0 0 0 -4.83-1.19h-5.14c-2.77 0-4.86-.6-6.28-1.78a5.53 5.53 0 0 1 -2.13-4.43 5.85 5.85 0 0 1 .94-3.1 9.11 9.11 0 0 1 2.67-2.65 10.23 10.23 0 0 1 -4.17-3.72 10.22 10.22 0 0 1 -1.32-5.36 10.82 10.82 0 0 1 1.66-5.88 11.17 11.17 0 0 1 4.53-4 13.89 13.89 0 0 1 6.41-1.44 45.52 45.52 0 0 0 6.45-.26 22.88 22.88 0 0 0 4.3-.92c1.14-.39 2.53-.95 4.19-1.69zm-21.6 3.82a7.76 7.76 0 0 0 -1.78 5.29 7.75 7.75 0 0 0 1.79 5.36 6.43 6.43 0 0 0 5.07 2 6.53 6.53 0 0 0 5.11-1.93 7.87 7.87 0 0 0 1.78-5.48q0-7.24-7-7.26a6.27 6.27 0 0 0 -4.97 2.02z" fill="#00a3dc"/></svg>