<svg viewBox="0 0 636.62 79.69" xmlns="http://www.w3.org/2000/svg"><g fill="#565757"><path d="m246.28 52.54q-5.67-6.23-5.63-17.09 0-11.43 5.93-17.89t16.49-6.44a20.06 20.06 0 0 1 4.88.54 34.73 34.73 0 0 1 4.11 1.34 6.65 6.65 0 0 0 2.36.7 1.64 1.64 0 0 0 1.68-1l.21-.77h1.88l.66 12.54h-1.85q-2.82-11-13.41-11a12.63 12.63 0 0 0 -9.25 3.36 18.53 18.53 0 0 0 -4.86 8.24 35.33 35.33 0 0 0 -1.48 9.77 33.76 33.76 0 0 0 1.58 10.56 17.41 17.41 0 0 0 5.06 8 12.88 12.88 0 0 0 8.77 3 15.08 15.08 0 0 0 7-1.41 11.38 11.38 0 0 0 4.22-3.47 26.18 26.18 0 0 0 2.66-4.77l1.74.91a18.85 18.85 0 0 1 -5.42 7.86q-3.73 3.27-11.26 3.25-10.35-.02-16.07-6.23z"/><path d="m285.15 41.7q0-8.43 3.79-12.78c2.52-2.89 6.33-4.34 11.44-4.32q15.12 0 15.08 17.11t-15.23 17.1q-15.12-.04-15.08-17.11zm23.85.3q0-15.19-8.67-15.21a7 7 0 0 0 -6.49 3.78q-2.18 3.8-2.19 11.1 0 14.85 8.67 14.87t8.68-14.54z"/><path d="m351.1 54.86a1.73 1.73 0 0 0 1.25 1 13.62 13.62 0 0 0 3.27.28v2h-15.26v-2a13.58 13.58 0 0 0 3.14-.23 1.65 1.65 0 0 0 1.19-.94 7.5 7.5 0 0 0 .28-2.44v-16.93a8.63 8.63 0 0 0 -1.55-5.4 5.81 5.81 0 0 0 -4.91-2.07 8 8 0 0 0 -4.6 1.28 15.13 15.13 0 0 0 -3.59 3.59l-.05 19.44a7.91 7.91 0 0 0 .27 2.47 1.53 1.53 0 0 0 1.18.94 15.28 15.28 0 0 0 3.07.22v2h-15.26v-2a13.91 13.91 0 0 0 3.28-.27 1.65 1.65 0 0 0 1.22-1 9.13 9.13 0 0 0 .25-2.51l.05-20.76a4.67 4.67 0 0 0 -.41-2.41 1.85 1.85 0 0 0 -1.6-.59h-2.32v-2.07l8.23-1.37h1.95v5.16h.07a16.21 16.21 0 0 1 5.09-4.13 13.83 13.83 0 0 1 6.21-1.35q9.4 0 9.38 10.06l-.05 17.56a7.55 7.55 0 0 0 .22 2.47z"/><path d="m364.15 57.3q-2-1.68-2-5.65l.06-23.83h-5.08v-2.1q7.24-.75 9-10.71h2v10.59h7.73v2.23h-7.74l-.05 22.78a7.15 7.15 0 0 0 .93 4.09 3 3 0 0 0 2.61 1.23 5.83 5.83 0 0 0 2.3-.52 10.32 10.32 0 0 0 2-1.15l.76 1.68a25 25 0 0 1 -3.67 2.29 9 9 0 0 1 -4 .75 7.24 7.24 0 0 1 -4.85-1.68z"/><path d="m404.29 26.33a5.64 5.64 0 0 1 1.35 4 5 5 0 0 1 -1 3.27 3.63 3.63 0 0 1 -3 1.18 3.67 3.67 0 0 1 -2.68-.91 3.09 3.09 0 0 1 -.93-2.37 3 3 0 0 1 .28-1.39 5 5 0 0 1 .84-1.19 1.77 1.77 0 0 0 .56-1c0-.42-.31-.63-.91-.63a4.42 4.42 0 0 0 -2.8 1.39 11.34 11.34 0 0 0 -2.62 3.58 14.37 14.37 0 0 0 -1.38 4.91v15.32a7.21 7.21 0 0 0 .31 2.55 1.79 1.79 0 0 0 1.35 1 17.88 17.88 0 0 0 3.56.25v2h-15.95v-2a13.91 13.91 0 0 0 3.28-.27 1.67 1.67 0 0 0 1.22-1 8.75 8.75 0 0 0 .25-2.51l-.02-20.79a4.67 4.67 0 0 0 -.41-2.41 1.85 1.85 0 0 0 -1.6-.59h-2.37v-2.1l8.23-1.37h2v6.55h.07a21.61 21.61 0 0 1 3.5-4.94 6.73 6.73 0 0 1 5.09-2 5 5 0 0 1 3.78 1.47z"/><path d="m439.43 57.28a12.86 12.86 0 0 1 -2.72 1.32 11.36 11.36 0 0 1 -3.62.48 5.08 5.08 0 0 1 -3.17-.84c-.72-.56-1.14-1.77-1.28-3.63a22.85 22.85 0 0 1 -5 3.37 12.56 12.56 0 0 1 -5.44 1.13 10.23 10.23 0 0 1 -6.2-1.79 6 6 0 0 1 -2.39-5.2q0-4.87 5-8.49t14.16-5.05v-4a8.22 8.22 0 0 0 -1.41-5.3q-1.42-1.74-4.91-1.75a10.35 10.35 0 0 0 -4.39.9c-1.3.6-2 1.2-2 1.8a1.39 1.39 0 0 0 .66 1 5.77 5.77 0 0 1 1.05 1.05 2.7 2.7 0 0 1 .37 1.57 3.2 3.2 0 0 1 -.84 2.33 3.14 3.14 0 0 1 -2.37.87 3.37 3.37 0 0 1 -2.54-1 3.69 3.69 0 0 1 -.93-2.72 6.55 6.55 0 0 1 1.43-4 10.14 10.14 0 0 1 4.33-3.06 18.74 18.74 0 0 1 7.08-1.16q5.3 0 7.8 2.18t2.48 7.53v16.51a8 8 0 0 0 .59 3.73 2 2 0 0 0 1.83.94 4.69 4.69 0 0 0 1.95-.48zm-22.21-3.15a6 6 0 0 0 4 1.23 8.75 8.75 0 0 0 3.73-.83 21.24 21.24 0 0 0 3.67-2.22v-11.5q-6.49 1.38-9.66 3.71a7.11 7.11 0 0 0 -3.19 5.95 4.62 4.62 0 0 0 1.45 3.66z"/><path d="m453.19 58.85a22.1 22.1 0 0 1 -2.75-.91 7.4 7.4 0 0 0 -2.44-.63 1.67 1.67 0 0 0 -1.08.31 2.93 2.93 0 0 0 -.73 1h-1.33l-.66-11.5h1.39a14.92 14.92 0 0 0 4 7.36 9.34 9.34 0 0 0 6.49 2.52 7.56 7.56 0 0 0 4.92-1.51 5.13 5.13 0 0 0 1.86-4.21 5 5 0 0 0 -1-3.24 7.89 7.89 0 0 0 -2.5-2.06c-1-.51-2.41-1.14-4.32-1.89l-1.74-.63a20 20 0 0 1 -6.3-3.68 7 7 0 0 1 -2-5.26 8.51 8.51 0 0 1 3.12-6.93 12.51 12.51 0 0 1 8.2-2.52 13.3 13.3 0 0 1 2.71.22 22.43 22.43 0 0 1 2.37.63 8.45 8.45 0 0 0 1.81.42 1.28 1.28 0 0 0 1-.31 2 2 0 0 0 .38-.59 1.63 1.63 0 0 0 .11-.35h1.3l.46 10.25h-1.39q-1.86-8.08-8.34-8.1a7.67 7.67 0 0 0 -4.73 1.37 4.33 4.33 0 0 0 -1.85 3.62 4.65 4.65 0 0 0 1.77 3.77 13.88 13.88 0 0 0 4.28 2.42l1.88.63a22.79 22.79 0 0 1 7.69 4.06 7.72 7.72 0 0 1 2.46 6.07 9.15 9.15 0 0 1 -3.29 7.3 12.52 12.52 0 0 1 -8.44 2.77 13.07 13.07 0 0 1 -3.31-.4z"/><path d="m479 57.6c-1.32-1.12-2-3-2-5.65l.06-23.83h-5.08v-2.12q7.24-.75 9-10.71h2v10.59h7.73v2.23h-7.74l.03 22.81a7.37 7.37 0 0 0 .86 4.08 3 3 0 0 0 2.62 1.22 5.85 5.85 0 0 0 2.3-.51 10.32 10.32 0 0 0 2-1.15l.76 1.67a24.66 24.66 0 0 1 -3.66 2.29 9.05 9.05 0 0 1 -4 .76 7.27 7.27 0 0 1 -4.88-1.68z"/><path d="m523.56 42.59-22.15-.06q.12 6.48 2.31 10.25t7.76 3.78a9.31 9.31 0 0 0 6.41-2.07 12.29 12.29 0 0 0 3.5-5.35l2 .84a15.14 15.14 0 0 1 -4.55 6.81q-3.07 2.58-9.13 2.56c-5 0-8.67-1.46-11.1-4.35s-3.64-7-3.63-12.41 1.28-9.81 3.8-12.85 6.21-4.54 11.08-4.53q13.8 0 13.76 16.76zm-6.47-2.24c0-4.42-.51-7.68-1.58-9.8a5.77 5.77 0 0 0 -5.63-3.18 6.74 6.74 0 0 0 -6.14 3.22q-2 3.24-2.33 9.72z"/><path d="m538.61 59.07a20.1 20.1 0 0 1 -2.75-.91 7.4 7.4 0 0 0 -2.44-.63 1.65 1.65 0 0 0 -1.08.31 3.07 3.07 0 0 0 -.74 1h-1.32l-.67-11.49h1.39a14.92 14.92 0 0 0 4 7.36 9.32 9.32 0 0 0 6.47 2.49 7.56 7.56 0 0 0 4.92-1.48 5.18 5.18 0 0 0 1.86-4.22 5 5 0 0 0 -1-3.24 8 8 0 0 0 -2.5-2.06q-1.47-.77-4.32-1.89l-1.74-.63a19.87 19.87 0 0 1 -6.23-3.68 6.94 6.94 0 0 1 -2-5.26 8.51 8.51 0 0 1 3.12-6.93 12.49 12.49 0 0 1 8.19-2.52 13.4 13.4 0 0 1 2.72.22 22.43 22.43 0 0 1 2.37.63 8.45 8.45 0 0 0 1.81.42 1.28 1.28 0 0 0 1-.31 2 2 0 0 0 .38-.59 1.48 1.48 0 0 0 .11-.35h1.25l.46 10.25h-1.39q-1.86-8.1-8.34-8.11a7.65 7.65 0 0 0 -4.71 1.38 4.35 4.35 0 0 0 -1.85 3.62 4.65 4.65 0 0 0 1.76 3.73 13.77 13.77 0 0 0 4.28 2.42l1.88.63a22.89 22.89 0 0 1 7.69 4.06 7.79 7.79 0 0 1 2.46 6.07 9.13 9.13 0 0 1 -3.3 7.3 12.51 12.51 0 0 1 -8.43 2.77 13 13 0 0 1 -3.31-.36z"/></g><path d="m30.78 19.16q5.84 4.52 5.81 16.65 0 11.82-5.9 16.67a21.53 21.53 0 0 1 -14.22 4.83h-10.22l.11-42.67h8.92q9.66.02 15.5 4.52zm-18.55.17-.08 33.32h4.76a13.17 13.17 0 0 0 9.67-3.65q3.74-3.64 3.75-13.24 0-6.75-1.89-10.38a9.85 9.85 0 0 0 -4.88-4.84 18.58 18.58 0 0 0 -7-1.23z" fill="#f7b285"/><path d="m67.91 43.07-20.81-.07c.24 3.59 1.14 6.24 2.7 7.93a7.93 7.93 0 0 0 6.07 2.56 13.33 13.33 0 0 0 4.33-.67 17.3 17.3 0 0 0 4.16-2.16l2.47 3.41a18 18 0 0 1 -11.41 4.06q-6.81 0-10.61-4.49t-3.81-12.25a23.22 23.22 0 0 1 1.67-9 14.19 14.19 0 0 1 4.72-6.16 12 12 0 0 1 7.25-2.23q6.51 0 10 4.3t3.36 11.86c0 .95 0 1.92-.09 2.91zm-5.5-4.6c0-3.22-.63-5.67-1.9-7.37a6.75 6.75 0 0 0 -5.76-2.55c-4.66 0-7.21 3.41-7.64 10.26h15.3z" fill="#f7b285"/><path d="m89.57 25a18.4 18.4 0 0 1 5.07 2.8l-2.43 3.59a19.89 19.89 0 0 0 -4.21-2.08 13.27 13.27 0 0 0 -4.24-.69 7.49 7.49 0 0 0 -4.4 1.13 3.88 3.88 0 0 0 -.13 6.25 17.49 17.49 0 0 0 5.48 2.18c3.62.92 6.34 2.16 8.13 3.74a8.13 8.13 0 0 1 2.68 6.44 8.38 8.38 0 0 1 -3.77 7.37 15.94 15.94 0 0 1 -9.14 2.51 18.09 18.09 0 0 1 -12.32-4.3l3-3.46a14.8 14.8 0 0 0 9.16 3.18 8.79 8.79 0 0 0 5.11-1.32 4.23 4.23 0 0 0 1.9-3.62 4.73 4.73 0 0 0 -.63-2.72 5.46 5.46 0 0 0 -2.34-1.81 32.35 32.35 0 0 0 -4.89-1.65c-3.47-.92-6-2.14-7.52-3.67a7.88 7.88 0 0 1 -2.31-5.83 7.71 7.71 0 0 1 1.53-4.61 9.87 9.87 0 0 1 4.22-3.21 15.2 15.2 0 0 1 6-1.13 18.18 18.18 0 0 1 6.05.91z" fill="#f7b285"/><path d="m123.74 52.91a4.21 4.21 0 0 0 2 1.46l-1.31 4a8.65 8.65 0 0 1 -4.08-1.44 6.47 6.47 0 0 1 -2.28-3.47q-3.3 4.89-9.74 4.87a10.44 10.44 0 0 1 -7.61-2.75 9.54 9.54 0 0 1 -2.72-7.17 9.38 9.38 0 0 1 3.77-8q3.75-2.77 10.63-2.76h5v-2.38c0-2.31-.55-4-1.66-5a7.59 7.59 0 0 0 -5.13-1.5 29.12 29.12 0 0 0 -8.8 1.71l-1.42-4.15a33 33 0 0 1 11.28-2.2q5.76 0 8.6 2.84c1.89 1.89 2.84 4.56 2.83 8v14.92a5.17 5.17 0 0 0 .64 3.02zm-6.36-3.91v-7.53h-4.27q-9 0-9.06 6.67a6.13 6.13 0 0 0 1.42 4.4 5.59 5.59 0 0 0 4.2 1.5q4.9-.04 7.71-5.04z" fill="#f7b285"/><path d="m139.75 16.9a5 5 0 0 0 -1.12 3.56v4.54h7.92l-.63 4.4h-7.3l-.08 28.24h-5.69l.07-28.24h-5.82v-4.4h5.82v-4.49a8.92 8.92 0 0 1 2.71-6.77q2.7-2.57 7.53-2.56a18.54 18.54 0 0 1 4 .42 23 23 0 0 1 3.8 1.28l-1.79 4.12a13.86 13.86 0 0 0 -5.7-1.25 5 5 0 0 0 -3.72 1.15z" fill="#f7b285"/><path d="m158.42 8.07 2.52 4.77-13.14 5.29-1.73-3zm-2.09 17-.08 32.64h-5.7l.08-32.71z" fill="#f7b285"/><path d="m188.55 29q3.81 4.61 3.78 12.46a21.62 21.62 0 0 1 -1.76 9 13.62 13.62 0 0 1 -5 6 14 14 0 0 1 -7.81 2.12q-6.87 0-10.7-4.61t-3.84-12.57a21.78 21.78 0 0 1 1.78-8.95 13.62 13.62 0 0 1 5-6 14.08 14.08 0 0 1 7.87-2.12q6.9.03 10.68 4.67zm-19.2 12.46q0 12.45 8.4 12.47t8.45-12.49q0-12.43-8.33-12.46t-8.52 12.43z" fill="#f7b285"/><path d="m214.17 25.36a18.12 18.12 0 0 1 5.07 2.8l-2.42 3.59a20.19 20.19 0 0 0 -4.24-2.12 13.5 13.5 0 0 0 -4.24-.69 7.51 7.51 0 0 0 -4.4 1.14 3.87 3.87 0 0 0 -.11 6.22 17.59 17.59 0 0 0 5.48 2.18c3.63.92 6.34 2.16 8.13 3.74a8.1 8.1 0 0 1 2.68 6.45 8.34 8.34 0 0 1 -3.77 7.33 15.91 15.91 0 0 1 -9.14 2.51 18.07 18.07 0 0 1 -12.31-4.3l3-3.46a14.82 14.82 0 0 0 9.2 3.25 8.7 8.7 0 0 0 5.11-1.32 4.2 4.2 0 0 0 1.9-3.62 4.81 4.81 0 0 0 -.67-2.69 5.5 5.5 0 0 0 -2.35-1.81 33.1 33.1 0 0 0 -4.89-1.65q-5.2-1.38-7.51-3.67a7.81 7.81 0 0 1 -2.31-5.83 7.58 7.58 0 0 1 1.53-4.61 9.81 9.81 0 0 1 4.22-3.21 15.16 15.16 0 0 1 6-1.13 18.34 18.34 0 0 1 6.04.9z" fill="#f7b285"/></svg>