<svg viewBox="0 0 636.62 79.69" xmlns="http://www.w3.org/2000/svg"><path d="m325.92 52.53q-5.66-6.21-5.63-17.08 0-11.43 5.93-17.89t16.49-6.44a19.12 19.12 0 0 1 4.88.54 33.47 33.47 0 0 1 4.11 1.34 6.78 6.78 0 0 0 2.36.71 1.64 1.64 0 0 0 1.68-1l.26-.71h1.88l.67 12.54h-1.89q-2.82-11-13.41-11a12.63 12.63 0 0 0 -9.25 3.3 18.44 18.44 0 0 0 -4.87 8.25 35.33 35.33 0 0 0 -1.42 9.75 33.85 33.85 0 0 0 1.58 10.56 17.41 17.41 0 0 0 5.06 8 12.91 12.91 0 0 0 8.78 3.06 15.07 15.07 0 0 0 7-1.41 11.7 11.7 0 0 0 4.23-3.47 27.43 27.43 0 0 0 2.64-4.82l1.74.91a19.07 19.07 0 0 1 -5.42 7.86q-3.77 3.27-11.32 3.24-10.41-.01-16.08-6.24z" fill="#565757"/><path d="m364.79 41.69q0-8.43 3.8-12.77t11.41-4.33q15.12 0 15.08 17.11t-15.21 17.1q-15.12-.03-15.08-17.11zm23.83.34q0-15.18-8.67-15.21a7 7 0 0 0 -6.49 3.78q-2.18 3.8-2.19 11.11 0 14.84 8.67 14.86t8.68-14.57z" fill="#565757"/><path d="m430.74 54.86a1.72 1.72 0 0 0 1.25 1 13.49 13.49 0 0 0 3.27.29v2h-15.26v-2a14 14 0 0 0 3.14-.24 1.64 1.64 0 0 0 1.19-.93 7.54 7.54 0 0 0 .28-2.44l.05-16.93a8.75 8.75 0 0 0 -1.56-5.41 5.76 5.76 0 0 0 -4.91-2.06 8 8 0 0 0 -4.6 1.27 15.89 15.89 0 0 0 -3.59 3.59v19.44a7.87 7.87 0 0 0 .27 2.47 1.54 1.54 0 0 0 1.18 1 15.48 15.48 0 0 0 3.07.21v2h-15.26v-2a13.2 13.2 0 0 0 3.28-.28 1.63 1.63 0 0 0 1.22-1 8.67 8.67 0 0 0 .25-2.5l-.01-20.79a4.52 4.52 0 0 0 -.41-2.4 1.83 1.83 0 0 0 -1.6-.6h-2.37v-2.09l8.22-1.38h1.95v5.15h.07a16.27 16.27 0 0 1 5.1-4.13 13.62 13.62 0 0 1 6.2-1.34q9.4 0 9.38 10.06v17.55a7.41 7.41 0 0 0 .2 2.49z" fill="#565757"/><path d="m443.79 57.29c-1.32-1.11-2-3-2-5.64l.06-23.83h-5.05v-2.1q7.26-.74 9-10.7h2v10.59h7.74v2.23h-7.73l-.06 22.79a7.14 7.14 0 0 0 .86 4.07 3 3 0 0 0 2.61 1.23 5.66 5.66 0 0 0 2.3-.52 9.82 9.82 0 0 0 2-1.14l.76 1.67a23.67 23.67 0 0 1 -3.66 2.29 9.16 9.16 0 0 1 -4 .76 7.3 7.3 0 0 1 -4.83-1.7z" fill="#565757"/><path d="m483.94 26.32a5.71 5.71 0 0 1 1.34 4.05 5 5 0 0 1 -1 3.27 3.66 3.66 0 0 1 -3 1.18 3.78 3.78 0 0 1 -2.68-.91 3.19 3.19 0 0 1 -.93-2.38 3 3 0 0 1 .28-1.39 5.93 5.93 0 0 1 .84-1.18 1.79 1.79 0 0 0 .56-1c0-.41-.3-.62-.91-.62a4.35 4.35 0 0 0 -2.82 1.31 11.46 11.46 0 0 0 -2.62 3.6 14.44 14.44 0 0 0 -1.41 4.91v15.33a7.14 7.14 0 0 0 .31 2.54 1.78 1.78 0 0 0 1.35 1 17.68 17.68 0 0 0 3.56.26v2h-15.95v-2a12.84 12.84 0 0 0 3.28-.27 1.63 1.63 0 0 0 1.22-1 8.7 8.7 0 0 0 .25-2.51l.05-20.76a4.49 4.49 0 0 0 -.41-2.4 1.83 1.83 0 0 0 -1.6-.6h-2.37v-2.14l8.22-1.37h1.95v6.56h.07a21.07 21.07 0 0 1 3.48-4.94 6.78 6.78 0 0 1 5.09-2 5.09 5.09 0 0 1 3.85 1.46z" fill="#565757"/><path d="m519.08 57.28a13.69 13.69 0 0 1 -2.73 1.32 11.32 11.32 0 0 1 -3.62.48 5.16 5.16 0 0 1 -3.17-.85c-.72-.56-1.14-1.77-1.28-3.63a22.16 22.16 0 0 1 -5 3.37 12.71 12.71 0 0 1 -5.44 1.14 10.25 10.25 0 0 1 -6.23-1.8 6 6 0 0 1 -2.39-5.19q0-4.87 5-8.49t14.15-5.05v-4a8.2 8.2 0 0 0 -1.41-5.3c-.95-1.16-2.59-1.75-4.91-1.75a10.23 10.23 0 0 0 -4.39.89c-1.3.6-1.95 1.2-2 1.81a1.41 1.41 0 0 0 .66 1 5.77 5.77 0 0 1 1.05 1.05 2.62 2.62 0 0 1 .37 1.57 3.22 3.22 0 0 1 -.84 2.33 3.12 3.12 0 0 1 -2.37.86 3.37 3.37 0 0 1 -2.53-1.04 3.79 3.79 0 0 1 -.93-2.72 6.51 6.51 0 0 1 1.44-4 10 10 0 0 1 4.32-3.05 18.54 18.54 0 0 1 7.08-1.17q5.3 0 7.8 2.18c1.67 1.45 2.49 4 2.49 7.53l-.05 16.52a8 8 0 0 0 .59 3.72 2 2 0 0 0 1.91 1 5 5 0 0 0 2-.48zm-22.22-3.16a5.89 5.89 0 0 0 4 1.23 8.6 8.6 0 0 0 3.73-.82 22.57 22.57 0 0 0 3.67-2.22v-11.5c-4.32.92-7.55 2.15-9.66 3.7a7.13 7.13 0 0 0 -3.19 6 4.59 4.59 0 0 0 1.45 3.61z" fill="#565757"/><path d="m532.83 58.85a24.55 24.55 0 0 1 -2.75-.91 7.22 7.22 0 0 0 -2.44-.64 1.67 1.67 0 0 0 -1.08.31 3.17 3.17 0 0 0 -.73 1h-1.32l-.67-11.5h1.39a15 15 0 0 0 4 7.36 9.26 9.26 0 0 0 6.5 2.53 7.49 7.49 0 0 0 4.91-1.48 5.1 5.1 0 0 0 1.86-4.21 5 5 0 0 0 -1-3.24 8.06 8.06 0 0 0 -2.5-2.07 47 47 0 0 0 -4.31-1.89l-1.75-.63a20 20 0 0 1 -6.22-3.67 7 7 0 0 1 -2-5.27 8.46 8.46 0 0 1 3.11-6.92 12.53 12.53 0 0 1 8.2-2.52 14.17 14.17 0 0 1 2.71.21 22.43 22.43 0 0 1 2.37.63 8.08 8.08 0 0 0 1.81.43 1.3 1.3 0 0 0 1-.31 2 2 0 0 0 .38-.6 1.63 1.63 0 0 0 .11-.34h1.25l.47 10.24h-1.4q-1.86-8.08-8.34-8.1a7.56 7.56 0 0 0 -4.71 1.38 4.32 4.32 0 0 0 -1.85 3.62 4.68 4.68 0 0 0 1.74 3.74 13.64 13.64 0 0 0 4.28 2.41l1.87.63a23 23 0 0 1 7.69 4.06 7.75 7.75 0 0 1 2.46 6.07 9.17 9.17 0 0 1 -3.29 7.31 12.62 12.62 0 0 1 -8.44 2.77 14.12 14.12 0 0 1 -3.31-.4z" fill="#565757"/><path d="m558.68 57.59q-2-1.68-2-5.65l.06-23.82h-5.08v-2.12q7.24-.75 9-10.71h2v10.59h7.74v2.23h-7.74l-.05 22.78a7.15 7.15 0 0 0 .89 4.11 3 3 0 0 0 2.61 1.23 5.66 5.66 0 0 0 2.3-.52 10.85 10.85 0 0 0 2-1.14l.76 1.67a25 25 0 0 1 -3.66 2.29 9.16 9.16 0 0 1 -4 .76 7.3 7.3 0 0 1 -4.83-1.7z" fill="#565757"/><path d="m603.21 42.59-22.16-.06q.12 6.48 2.31 10.25t7.76 3.78a9.31 9.31 0 0 0 6.41-2.07 12.33 12.33 0 0 0 3.5-5.36l2 .84a15.09 15.09 0 0 1 -4.55 6.82q-3.07 2.57-9.13 2.55-7.45 0-11.1-4.35t-3.63-12.41c0-5.52 1.28-9.81 3.8-12.84s6.21-4.55 11.09-4.54q13.78 0 13.75 16.76zm-6.48-2.25q0-6.62-1.57-9.79t-5.64-3.19a6.75 6.75 0 0 0 -6.14 3.23q-2 3.23-2.32 9.71z" fill="#565757"/><path d="m618.25 59.07a23.89 23.89 0 0 1 -2.75-.91 7.47 7.47 0 0 0 -2.44-.64 1.73 1.73 0 0 0 -1.08.31 3 3 0 0 0 -.73 1h-1.33l-.66-11.5h1.39a15 15 0 0 0 4 7.37 9.34 9.34 0 0 0 6.47 2.49 7.56 7.56 0 0 0 4.92-1.49 5.16 5.16 0 0 0 1.86-4.21 5 5 0 0 0 -1-3.24 7.89 7.89 0 0 0 -2.5-2.06 44.32 44.32 0 0 0 -4.32-1.9l-1.74-.63a20 20 0 0 1 -6.24-3.66 7 7 0 0 1 -2-5.27 8.5 8.5 0 0 1 3.12-6.92 12.51 12.51 0 0 1 8.2-2.52 14.17 14.17 0 0 1 2.71.21 22.43 22.43 0 0 1 2.37.63 8.08 8.08 0 0 0 1.81.43 1.28 1.28 0 0 0 1-.31 2.15 2.15 0 0 0 .38-.59 1.83 1.83 0 0 0 .11-.35h1.25l.46 10.24h-1.39q-1.86-8.08-8.34-8.1a7.54 7.54 0 0 0 -4.71 1.38 4.32 4.32 0 0 0 -1.85 3.62 4.67 4.67 0 0 0 1.78 3.73 13.86 13.86 0 0 0 4.28 2.41l1.88.63a22.61 22.61 0 0 1 7.69 4.07 7.71 7.71 0 0 1 2.46 6.06 9.15 9.15 0 0 1 -3.3 7.31 12.59 12.59 0 0 1 -8.43 2.77 14.06 14.06 0 0 1 -3.33-.36z" fill="#565757"/><g fill="#99c980"><path d="m6.25 57.07.11-42.67 22.64.06-.7 4.7h-16.1v14.56h13.94v4.65h-13.94v18.77z"/><path d="m56.89 28.4q3.8 4.59 3.78 12.46a21.78 21.78 0 0 1 -1.76 9 13.62 13.62 0 0 1 -5 6 14.07 14.07 0 0 1 -7.81 2.12q-6.87 0-10.7-4.61c-2.56-3.07-3.82-7.22-3.81-12.46a21.62 21.62 0 0 1 1.76-9 13.62 13.62 0 0 1 5-6 14.06 14.06 0 0 1 7.87-2.12q6.87.02 10.67 4.61zm-19.2 12.46q0 12.45 8.39 12.47t8.46-12.49q0-12.44-8.33-12.46t-8.52 12.48z"/><path d="m84.72 55.79a12.59 12.59 0 0 1 -7.31 2.21 8.66 8.66 0 0 1 -6.47-2.4c-1.54-1.6-2.31-3.9-2.3-6.92v-19.69h-5.64v-4.4h5.7v-7.37l5.7-.66v8.05h7.74l-.63 4.39h-7.13v19.45a6.1 6.1 0 0 0 .89 3.69 3.57 3.57 0 0 0 3 1.15 9.18 9.18 0 0 0 4.29-1.29z"/><path d="m111.33 28.54q3.8 4.6 3.77 12.46a21.62 21.62 0 0 1 -1.75 9 13.65 13.65 0 0 1 -5 6 14 14 0 0 1 -7.8 2.12c-4.59 0-8.15-1.55-10.71-4.61s-3.84-7.28-3.84-12.51a21.78 21.78 0 0 1 1.75-9 13.65 13.65 0 0 1 5-6 14.06 14.06 0 0 1 7.87-2.12q6.91.07 10.71 4.66zm-19.2 12.46q0 12.45 8.39 12.47t8.48-12.47q0-12.45-8.33-12.47t-8.54 12.47z"/><path d="m149.08 26.29a17.46 17.46 0 0 1 -4.09.79c-1.49.12-3.3.18-5.45.17q5.76 2.63 5.74 8.26a10.39 10.39 0 0 1 -3.37 8q-3.34 3.07-9.11 3.07a13.56 13.56 0 0 1 -4.15-.63 3.54 3.54 0 0 0 -1.18 1.33 3.61 3.61 0 0 0 -.47 1.72q0 2.67 4.26 2.67h5.2a13.6 13.6 0 0 1 5.82 1.19 9.43 9.43 0 0 1 3.93 3.23 8.1 8.1 0 0 1 1.38 4.65 8.29 8.29 0 0 1 -3.92 7.33q-3.92 2.55-11.4 2.54a25.72 25.72 0 0 1 -8.27-1.13 7.9 7.9 0 0 1 -4.36-3.26 10.82 10.82 0 0 1 -1.29-5.58h5.15a5.69 5.69 0 0 0 .73 3.13 4.71 4.71 0 0 0 2.66 1.74 19.9 19.9 0 0 0 5.45.6c3.43 0 5.87-.41 7.34-1.25a4.13 4.13 0 0 0 2.21-3.81 3.93 3.93 0 0 0 -1.73-3.47 8.52 8.52 0 0 0 -4.82-1.19h-5.15q-4.14 0-6.28-1.78a5.5 5.5 0 0 1 -2.12-4.44 5.67 5.67 0 0 1 .94-3.09 9.13 9.13 0 0 1 2.67-2.66 10.14 10.14 0 0 1 -4.17-3.69 10.08 10.08 0 0 1 -1.32-5.36 10.72 10.72 0 0 1 1.65-5.88 11.23 11.23 0 0 1 4.54-4.05 14.14 14.14 0 0 1 6.39-1.44 43.86 43.86 0 0 0 6.44-.26 22.07 22.07 0 0 0 4.31-.92c1.13-.38 2.53-.95 4.18-1.69zm-21.59 3.81a7.73 7.73 0 0 0 -1.78 5.29 7.73 7.73 0 0 0 1.78 5.36 6.45 6.45 0 0 0 5.07 2 6.53 6.53 0 0 0 5.12-1.94 7.89 7.89 0 0 0 1.78-5.47q0-7.24-7-7.27a6.29 6.29 0 0 0 -4.97 2.03z"/><path d="m171.07 24.49-1.07 5.57a11.64 11.64 0 0 0 -2.84-.38 6 6 0 0 0 -4.9 2.22 16.44 16.44 0 0 0 -2.93 6.92l-.05 18.64h-5.7l.09-32.64h4.89l.54 6.62a12.39 12.39 0 0 1 3.54-5.5 7.89 7.89 0 0 1 5.21-1.84 13.1 13.1 0 0 1 3.22.39z"/><path d="m198.8 52.89a4.21 4.21 0 0 0 2 1.46l-1.31 4a8.76 8.76 0 0 1 -4.08-1.43 6.54 6.54 0 0 1 -2.28-3.48q-3.3 4.89-9.74 4.87a10.43 10.43 0 0 1 -7.61-2.74 9.52 9.52 0 0 1 -2.77-7.13 9.36 9.36 0 0 1 3.77-8q3.75-2.78 10.63-2.76h5v-2.42c0-2.32-.55-4-1.66-5s-2.82-1.5-5.14-1.5a28.52 28.52 0 0 0 -8.79 1.71l-1.42-4.15a32.73 32.73 0 0 1 11.28-2.2c3.84 0 6.71.95 8.6 2.84s2.84 4.55 2.83 8v14.93a5.15 5.15 0 0 0 .69 3zm-6.36-4v-7.49h-4.28q-9 0-9.06 6.66a6.13 6.13 0 0 0 1.42 4.4 5.5 5.5 0 0 0 4.2 1.5q4.91.04 7.72-5.02z"/><path d="m215.25 16.89a5 5 0 0 0 -1.13 3.56v4.55h7.88l-.63 4.39h-7.27l-.1 28.22h-5.7l.07-28.24h-5.82v-4.4h5.82v-4.47a9 9 0 0 1 2.71-6.78q2.72-2.57 7.54-2.55a17.93 17.93 0 0 1 4 .41 23.06 23.06 0 0 1 3.81 1.28l-1.77 4.14a14 14 0 0 0 -5.7-1.26 5 5 0 0 0 -3.71 1.15z"/><path d="m239 8.06 2.52 4.78-13.14 5.29-1.72-3zm-2.1 16.94-.08 32.64h-5.7l.08-32.64z"/><path d="m268.54 53.07a4.12 4.12 0 0 0 2 1.46l-1.31 4a8.76 8.76 0 0 1 -4.09-1.43 6.54 6.54 0 0 1 -2.28-3.48q-3.3 4.89-9.73 4.87a10.46 10.46 0 0 1 -7.62-2.74 9.53 9.53 0 0 1 -2.76-7.13 9.33 9.33 0 0 1 3.76-8q3.76-2.77 10.63-2.76h5v-2.42q0-3.48-1.65-5a7.53 7.53 0 0 0 -5.14-1.5 28.52 28.52 0 0 0 -8.8 1.71l-1.41-4.15a32.94 32.94 0 0 1 11.27-2.21q5.76 0 8.6 2.84c1.9 1.89 2.84 4.56 2.83 8v14.93a5.07 5.07 0 0 0 .7 3.01zm-6.37-4v-7.49h-4.27q-9 0-9.06 6.66a6.08 6.08 0 0 0 1.41 4.4 5.53 5.53 0 0 0 4.21 1.5q4.91.05 7.71-5.02z"/><path d="m293.81 25.36a17.87 17.87 0 0 1 5.07 2.8l-2.42 3.59a19.49 19.49 0 0 0 -4.24-2.12 13 13 0 0 0 -4.24-.69 7.46 7.46 0 0 0 -4.4 1.13 3.9 3.9 0 0 0 -.11 6.23 17.85 17.85 0 0 0 5.53 2.18 19.63 19.63 0 0 1 8.13 3.73 8.1 8.1 0 0 1 2.68 6.45 8.35 8.35 0 0 1 -3.81 7.34 15.89 15.89 0 0 1 -9.14 2.52 18.08 18.08 0 0 1 -12.32-4.31l3-3.46a14.78 14.78 0 0 0 9.2 3.25 8.75 8.75 0 0 0 5.12-1.31 4.2 4.2 0 0 0 1.89-3.69 4.74 4.74 0 0 0 -.67-2.7 5.56 5.56 0 0 0 -2.35-1.8 31.58 31.58 0 0 0 -4.89-1.65c-3.46-.92-6-2.15-7.51-3.68a7.78 7.78 0 0 1 -2.33-5.8 7.56 7.56 0 0 1 1.53-4.61 9.81 9.81 0 0 1 4.22-3.21 15.2 15.2 0 0 1 6-1.13 18.08 18.08 0 0 1 6.06.94z"/></g></svg>