<svg viewBox="0 0 636.62 79.69" xmlns="http://www.w3.org/2000/svg"><g fill="#565757"><path d="m280.65 52.53q-5.65-6.21-5.65-17.08 0-11.43 5.93-17.89t16.49-6.44a19.58 19.58 0 0 1 4.88.54 31.94 31.94 0 0 1 4.13 1.34 6.93 6.93 0 0 0 2.36.7 1.64 1.64 0 0 0 1.68-1l.21-.77h1.88l.67 12.54h-1.89q-2.82-11-13.41-11a12.59 12.59 0 0 0 -9.24 3.36 18.35 18.35 0 0 0 -4.87 8.24 35.33 35.33 0 0 0 -1.42 9.75 33.85 33.85 0 0 0 1.6 10.58 17.49 17.49 0 0 0 5.06 8 13 13 0 0 0 8.78 3 15.07 15.07 0 0 0 7-1.41 11.6 11.6 0 0 0 4.23-3.47 27.43 27.43 0 0 0 2.66-4.77l1.73.91a19 19 0 0 1 -5.46 7.87q-3.75 3.27-11.27 3.25-10.41-.03-16.08-6.25z"/><path d="m319.52 41.69q0-8.41 3.8-12.77t11.43-4.33q15.12 0 15.08 17.11t-15.23 17.1q-15.12-.03-15.08-17.11zm23.83.35q0-15.19-8.67-15.22a7 7 0 0 0 -6.49 3.78q-2.19 3.8-2.19 11.11 0 14.84 8.67 14.86t8.68-14.57z"/><path d="m385.47 54.86a1.7 1.7 0 0 0 1.25 1 13 13 0 0 0 3.27.29v2h-15.26v-2a13.37 13.37 0 0 0 3.14-.24 1.64 1.64 0 0 0 1.19-.93 7.54 7.54 0 0 0 .28-2.44l.05-16.93a8.75 8.75 0 0 0 -1.56-5.41 5.77 5.77 0 0 0 -4.91-2.06 8 8 0 0 0 -4.6 1.27 15.69 15.69 0 0 0 -3.63 3.59l-.05 19.44a8 8 0 0 0 .27 2.48 1.55 1.55 0 0 0 1.18.94 16.08 16.08 0 0 0 3.07.22v2h-15.25v-2a13.91 13.91 0 0 0 3.28-.27 1.67 1.67 0 0 0 1.22-1 8.8 8.8 0 0 0 .25-2.51l.05-20.77a4.54 4.54 0 0 0 -.41-2.4 1.85 1.85 0 0 0 -1.6-.6h-2.37v-2.07l8.22-1.37h1.95v5.16h.07a16.25 16.25 0 0 1 5.09-4.14 13.69 13.69 0 0 1 6.21-1.34q9.4 0 9.38 10.06l-.05 17.56a7.55 7.55 0 0 0 .27 2.47z"/><path d="m398.52 57.3c-1.32-1.12-2-3-2-5.65l.06-23.83h-5.08v-2.1q7.25-.75 9-10.71h2v10.6h7.74v2.23h-7.73l-.06 22.78a7.2 7.2 0 0 0 .86 4.08 3 3 0 0 0 2.69 1.22 5.81 5.81 0 0 0 2.3-.51 10.32 10.32 0 0 0 2-1.15l.76 1.68a25.32 25.32 0 0 1 -3.66 2.29 9.17 9.17 0 0 1 -4 .75 7.24 7.24 0 0 1 -4.88-1.68z"/><path d="m438.66 26.33a5.63 5.63 0 0 1 1.35 4 5 5 0 0 1 -1 3.27 3.66 3.66 0 0 1 -3 1.18 3.73 3.73 0 0 1 -2.68-.91 3.14 3.14 0 0 1 -.93-2.37 3.06 3.06 0 0 1 .28-1.4 5.55 5.55 0 0 1 .84-1.18 1.8 1.8 0 0 0 .56-1c0-.42-.3-.63-.91-.63a4.35 4.35 0 0 0 -2.82 1.31 11.46 11.46 0 0 0 -2.62 3.58 14.44 14.44 0 0 0 -1.41 4.91v15.33a7.21 7.21 0 0 0 .31 2.55 1.79 1.79 0 0 0 1.37 1.03 17.68 17.68 0 0 0 3.56.26v2h-15.95v-2a13.85 13.85 0 0 0 3.28-.27 1.66 1.66 0 0 0 1.22-1 8.67 8.67 0 0 0 .25-2.5l.05-20.77a4.52 4.52 0 0 0 -.41-2.4 1.83 1.83 0 0 0 -1.6-.6h-2.4v-2.1l8.22-1.38h2v6.56h.07a21.07 21.07 0 0 1 3.49-4.94 6.78 6.78 0 0 1 5.09-2 5 5 0 0 1 3.79 1.47z"/><path d="m473.81 57.28a13.17 13.17 0 0 1 -2.73 1.32 11.32 11.32 0 0 1 -3.62.48 5.16 5.16 0 0 1 -3.17-.85c-.72-.56-1.14-1.76-1.28-3.62a22.43 22.43 0 0 1 -5.01 3.39 12.56 12.56 0 0 1 -5.44 1.14 10.29 10.29 0 0 1 -6.23-1.79 6.05 6.05 0 0 1 -2.39-5.2q0-4.87 5-8.49t14.15-5.05v-4a8.22 8.22 0 0 0 -1.41-5.3c-.95-1.16-2.59-1.75-4.91-1.75a10.19 10.19 0 0 0 -4.39.89c-1.3.6-2 1.21-2 1.81a1.41 1.41 0 0 0 .66 1 5.77 5.77 0 0 1 1.05 1.05 2.62 2.62 0 0 1 .37 1.57 3.22 3.22 0 0 1 -.84 2.33 3.1 3.1 0 0 1 -2.37.86 3.37 3.37 0 0 1 -2.54-1 3.74 3.74 0 0 1 -.93-2.72 6.53 6.53 0 0 1 1.44-4 10 10 0 0 1 4.32-3.05 18.93 18.93 0 0 1 7.08-1.17q5.3 0 7.8 2.18c1.67 1.45 2.49 4 2.49 7.53l-.05 16.52a8.07 8.07 0 0 0 .59 3.73 2 2 0 0 0 1.91 1 5 5 0 0 0 1.95-.48zm-22.22-3.16a5.89 5.89 0 0 0 4 1.23 8.6 8.6 0 0 0 3.73-.82 22.57 22.57 0 0 0 3.68-2.22v-11.5c-4.32.92-7.55 2.15-9.66 3.7a7.14 7.14 0 0 0 -3.19 6 4.59 4.59 0 0 0 1.44 3.61z"/><path d="m487.56 58.85a23.89 23.89 0 0 1 -2.75-.91 7.74 7.74 0 0 0 -2.44-.64 1.73 1.73 0 0 0 -1.08.31 3.17 3.17 0 0 0 -.73 1h-1.33l-.66-11.5h1.43a15 15 0 0 0 4 7.36 9.35 9.35 0 0 0 6.46 2.53 7.55 7.55 0 0 0 4.91-1.49 5.11 5.11 0 0 0 1.86-4.21 5 5 0 0 0 -1-3.24 7.89 7.89 0 0 0 -2.5-2.06 43.24 43.24 0 0 0 -4.32-1.9l-1.74-.63a20 20 0 0 1 -6.22-3.67 7 7 0 0 1 -2-5.27 8.46 8.46 0 0 1 3.11-6.92 12.53 12.53 0 0 1 8.2-2.52 14.17 14.17 0 0 1 2.71.21 22.69 22.69 0 0 1 2.37.64 8.45 8.45 0 0 0 1.81.42 1.27 1.27 0 0 0 1-.31 2.15 2.15 0 0 0 .38-.59 1.63 1.63 0 0 0 .11-.35h1.25l.46 10.25h-1.39q-1.86-8.08-8.34-8.1a7.56 7.56 0 0 0 -4.71 1.38 4.33 4.33 0 0 0 -1.85 3.62 4.65 4.65 0 0 0 1.74 3.74 13.7 13.7 0 0 0 4.27 2.41l1.88.64a22.61 22.61 0 0 1 7.69 4.06 7.71 7.71 0 0 1 2.46 6.06 9.17 9.17 0 0 1 -3.29 7.31 12.52 12.52 0 0 1 -8.44 2.77 13.6 13.6 0 0 1 -3.31-.4z"/><path d="m513.41 57.59c-1.32-1.11-2-3-2-5.65l.06-23.82h-5.08v-2.12q7.24-.75 9-10.7h2v10.59h7.73v2.23h-7.74v22.79a7.14 7.14 0 0 0 .86 4.07 3 3 0 0 0 2.61 1.23 5.66 5.66 0 0 0 2.3-.52 10.31 10.31 0 0 0 2-1.14l.76 1.67a25 25 0 0 1 -3.66 2.29 9.16 9.16 0 0 1 -4 .76 7.3 7.3 0 0 1 -4.84-1.68z"/><path d="m557.94 42.59-22.16-.06q.12 6.48 2.31 10.25t7.76 3.78a9.31 9.31 0 0 0 6.41-2.07 12.33 12.33 0 0 0 3.5-5.36l2 .84a15.09 15.09 0 0 1 -4.55 6.82q-3.07 2.57-9.13 2.55-7.46 0-11.1-4.34t-3.68-12.41q0-8.3 3.8-12.85c2.51-3 6.21-4.55 11.09-4.53q13.81.03 13.75 16.79zm-6.48-2.25q0-6.62-1.57-9.79t-5.64-3.19a6.75 6.75 0 0 0 -6.14 3.23q-2 3.24-2.32 9.71z"/><path d="m573 59.07a22.1 22.1 0 0 1 -2.75-.91 7.74 7.74 0 0 0 -2.44-.64 1.67 1.67 0 0 0 -1.08.32 2.87 2.87 0 0 0 -.73 1h-1.33l-.67-11.5h1.4a15 15 0 0 0 4 7.36 9.34 9.34 0 0 0 6.47 2.49 7.56 7.56 0 0 0 4.92-1.49 5.14 5.14 0 0 0 1.86-4.21 5 5 0 0 0 -1-3.24 7.89 7.89 0 0 0 -2.5-2.06 44.32 44.32 0 0 0 -4.32-1.9l-1.74-.63a20 20 0 0 1 -6.26-3.66 7 7 0 0 1 -2-5.27 8.5 8.5 0 0 1 3.17-6.92 12.5 12.5 0 0 1 8.2-2.52 14.17 14.17 0 0 1 2.71.21 22.69 22.69 0 0 1 2.37.64 8.45 8.45 0 0 0 1.81.42 1.28 1.28 0 0 0 1-.31 2.15 2.15 0 0 0 .38-.59 1.63 1.63 0 0 0 .11-.35h1.25l.46 10.25h-1.39q-1.86-8.08-8.34-8.1a7.52 7.52 0 0 0 -4.71 1.38 4.33 4.33 0 0 0 -1.85 3.61 4.67 4.67 0 0 0 1.76 3.73 13.86 13.86 0 0 0 4.24 2.41l1.88.64a22.71 22.71 0 0 1 7.69 4.06 7.78 7.78 0 0 1 2.43 6.06 9.13 9.13 0 0 1 -3.3 7.31 12.54 12.54 0 0 1 -8.43 2.77 14.06 14.06 0 0 1 -3.27-.36z"/></g><path d="m12.24 14.53-.09 37.53h17.52l-.67 5.19-22.75-.06.11-42.67z" fill="#00a3dc"/><path d="m58.87 43-20.81-.1c.24 3.6 1.14 6.24 2.7 7.94a7.91 7.91 0 0 0 6.06 2.55 13.13 13.13 0 0 0 4.34-.67 17.8 17.8 0 0 0 4.16-2.15l2.46 3.43a18.05 18.05 0 0 1 -11.4 4q-6.81 0-10.61-4.49t-3.77-12.23a23.27 23.27 0 0 1 1.67-9 14.1 14.1 0 0 1 4.72-6.15 11.92 11.92 0 0 1 7.22-2.21c4.34 0 7.65 1.44 10 4.3s3.39 6.78 3.39 11.83c0 .95 0 1.95-.13 2.95zm-5.5-4.6c0-3.22-.63-5.68-1.91-7.37a6.75 6.75 0 0 0 -5.75-2.56q-7 0-7.64 10.26h15.29z" fill="#00a3dc"/><path d="m82.88 24.84a15 15 0 0 1 4.64 2.71l-2.74 3.58a13.72 13.72 0 0 0 -3.37-1.83 10.45 10.45 0 0 0 -3.62-.6 7.08 7.08 0 0 0 -6.17 3.14q-2.2 3.16-2.22 9.35c0 4.13.7 7.17 2.14 9.14a7.25 7.25 0 0 0 6.19 3 10.29 10.29 0 0 0 3.53-.58 18.49 18.49 0 0 0 3.6-1.88l2.59 3.72a15.49 15.49 0 0 1 -10 3.57q-6.63 0-10.43-4.49t-3.75-12.37a22.28 22.28 0 0 1 1.73-9.1 14.06 14.06 0 0 1 5-6.06 13.16 13.16 0 0 1 7.56-2.14 16.35 16.35 0 0 1 5.32.84z" fill="#00a3dc"/><path d="m110 24.91a14.92 14.92 0 0 1 4.63 2.71l-2.73 3.58a13.9 13.9 0 0 0 -3.37-1.83 10.45 10.45 0 0 0 -3.62-.6 7.07 7.07 0 0 0 -6.17 3.14q-2.22 3.15-2.23 9.35c0 4.13.71 7.17 2.15 9.14a7.25 7.25 0 0 0 6.18 3 10.35 10.35 0 0 0 3.54-.58 18.16 18.16 0 0 0 3.62-1.92l2.59 3.72a15.47 15.47 0 0 1 -10 3.57q-6.61 0-10.42-4.49t-3.78-12.33a22.28 22.28 0 0 1 1.76-9.1 14 14 0 0 1 4.94-6.06 13.15 13.15 0 0 1 7.59-2.15 16.41 16.41 0 0 1 5.32.85z" fill="#00a3dc"/><path d="m125.65 10.3a3.82 3.82 0 0 1 1.11 2.79 3.73 3.73 0 0 1 -1.12 2.76 4 4 0 0 1 -2.92 1.07 3.88 3.88 0 0 1 -2.84-1.09 3.65 3.65 0 0 1 -1.11-2.76 3.75 3.75 0 0 1 1.12-2.78 3.86 3.86 0 0 1 2.85-1.11 4 4 0 0 1 2.91 1.12zm0 14.56-.08 32.64h-5.7l.09-32.64z" fill="#00a3dc"/><path d="m157.84 28.78q3.79 4.59 3.77 12.46a21.54 21.54 0 0 1 -1.75 8.94 13.62 13.62 0 0 1 -5 6 14 14 0 0 1 -7.86 2.12c-4.59 0-8.15-1.55-10.71-4.62s-3.82-7.21-3.8-12.45a21.78 21.78 0 0 1 1.75-8.95 13.69 13.69 0 0 1 5-6 14.11 14.11 0 0 1 7.88-2.12q6.88.03 10.72 4.62zm-19.2 12.46q0 12.45 8.39 12.47t8.45-12.49q0-12.45-8.32-12.47t-8.52 12.49z" fill="#00a3dc"/><path d="m190.91 27a10.21 10.21 0 0 1 2.49 7.31l-.06 23.41h-5.69v-22.61q0-3.46-1.28-4.89a5 5 0 0 0 -3.84-1.44 7.48 7.48 0 0 0 -4.53 1.42 15.44 15.44 0 0 0 -3.72 4.26l-.06 23.16h-5.7l.07-32.62h4.9l.48 4.83a12.86 12.86 0 0 1 4.31-4.07 11.05 11.05 0 0 1 5.72-1.49 9.06 9.06 0 0 1 6.91 2.73z" fill="#00a3dc"/><path d="m226.88 43.39h-20.8q.34 5.38 2.7 7.93a7.9 7.9 0 0 0 6.06 2.56 13.39 13.39 0 0 0 4.34-.67 17.25 17.25 0 0 0 4.15-2.21l2.47 3.41a18 18 0 0 1 -11.4 4.06q-6.81 0-10.61-4.49t-3.79-12.27a23.31 23.31 0 0 1 1.66-9 14.25 14.25 0 0 1 4.73-6.15 12 12 0 0 1 7.22-2.21q6.49 0 10 4.3t3.39 11.83c0 .95 0 1.92-.12 2.91zm-5.5-4.6c0-3.22-.62-5.67-1.9-7.37a6.75 6.75 0 0 0 -5.75-2.56q-7 0-7.64 10.27h15.29z" fill="#00a3dc"/><path d="m248.54 25.36a18.31 18.31 0 0 1 5.08 2.8l-2.43 3.59a19.66 19.66 0 0 0 -4.19-2.12 13.06 13.06 0 0 0 -4.25-.69 7.46 7.46 0 0 0 -4.4 1.13 3.66 3.66 0 0 0 -1.61 3.13 3.62 3.62 0 0 0 1.51 3.1 17.65 17.65 0 0 0 5.47 2.18c3.63.92 6.34 2.16 8.13 3.74a8.06 8.06 0 0 1 2.68 6.44 8.35 8.35 0 0 1 -3.8 7.34 15.89 15.89 0 0 1 -9.14 2.52 18.05 18.05 0 0 1 -12.32-4.31l3-3.46a14.74 14.74 0 0 0 9.2 3.25 8.83 8.83 0 0 0 5.12-1.32 4.2 4.2 0 0 0 1.89-3.68 4.78 4.78 0 0 0 -.67-2.7 5.56 5.56 0 0 0 -2.35-1.8 31.58 31.58 0 0 0 -4.89-1.65c-3.46-.92-6-2.14-7.51-3.68a7.78 7.78 0 0 1 -2.31-5.82 7.56 7.56 0 0 1 1.53-4.61 9.81 9.81 0 0 1 4.22-3.21 15.2 15.2 0 0 1 6-1.13 18.08 18.08 0 0 1 6.04.96z" fill="#00a3dc"/></svg>