<svg viewBox="0 0 636.62 79.69" xmlns="http://www.w3.org/2000/svg"><g fill="#565757"><path d="m213.33 52.53q-5.66-6.21-5.63-17.08 0-11.43 5.93-17.89t16.49-6.44a20.06 20.06 0 0 1 4.88.54 31.94 31.94 0 0 1 4.11 1.34 6.91 6.91 0 0 0 2.37.7 1.64 1.64 0 0 0 1.67-1l.21-.77h1.88l.67 12.54h-1.91q-2.82-11-13.41-11a12.59 12.59 0 0 0 -9.24 3.36 18.4 18.4 0 0 0 -4.87 8.24 35.33 35.33 0 0 0 -1.42 9.75 33.85 33.85 0 0 0 1.58 10.56 17.43 17.43 0 0 0 5.07 8 12.91 12.91 0 0 0 8.77 3 15.07 15.07 0 0 0 7-1.41 11.6 11.6 0 0 0 4.23-3.47 27.43 27.43 0 0 0 2.66-4.77l1.74.91a19 19 0 0 1 -5.42 7.86q-3.69 3.3-11.25 3.28-10.44-.03-16.11-6.25z"/><path d="m252.2 41.7q0-8.43 3.8-12.78t11.44-4.32q15.1 0 15.07 17.1t-15.23 17.1q-15.12-.03-15.08-17.1zm23.8.3q0-15.19-8.67-15.21a7 7 0 0 0 -6.49 3.78c-1.45 2.52-2.18 6.23-2.19 11.1q0 14.85 8.67 14.87t8.68-14.54z"/><path d="m318.15 54.86a1.7 1.7 0 0 0 1.25 1 13 13 0 0 0 3.27.29v2h-15.26v-2a13.52 13.52 0 0 0 3.14-.23 1.67 1.67 0 0 0 1.19-.94 7.54 7.54 0 0 0 .28-2.44l.05-16.93a8.7 8.7 0 0 0 -1.56-5.4 5.74 5.74 0 0 0 -4.91-2.07 7.88 7.88 0 0 0 -4.6 1.28 15.63 15.63 0 0 0 -3.63 3.58l-.05 19.44a8 8 0 0 0 .27 2.48 1.55 1.55 0 0 0 1.18.94 16.08 16.08 0 0 0 3.07.22v2h-15.26v-2a13.85 13.85 0 0 0 3.28-.27 1.67 1.67 0 0 0 1.22-1 8.75 8.75 0 0 0 .25-2.51l.05-20.76a4.56 4.56 0 0 0 -.41-2.41 1.88 1.88 0 0 0 -1.6-.6h-2.37v-2.07l8.22-1.38h1.95v5.16h.07a16.17 16.17 0 0 1 5.1-4.14 13.75 13.75 0 0 1 6.2-1.34q9.4 0 9.38 10.06v17.56a7.34 7.34 0 0 0 .23 2.48z"/><path d="m331.2 57.3c-1.32-1.12-2-3-2-5.65l.06-23.83h-5.08v-2.1q7.26-.75 9-10.71h2v10.59h7.74v2.23h-7.73l-.06 22.78a7.2 7.2 0 0 0 .87 4.09 3 3 0 0 0 2.61 1.22 5.81 5.81 0 0 0 2.3-.51 10.32 10.32 0 0 0 2-1.15l.76 1.68a24.47 24.47 0 0 1 -3.66 2.29 9.17 9.17 0 0 1 -4 .75 7.24 7.24 0 0 1 -4.81-1.68z"/><path d="m371.35 26.33a5.67 5.67 0 0 1 1.34 4 5 5 0 0 1 -1 3.27 3.66 3.66 0 0 1 -3 1.18 3.73 3.73 0 0 1 -2.68-.91 3.18 3.18 0 0 1 -.93-2.37 3.09 3.09 0 0 1 .28-1.4 5.93 5.93 0 0 1 .84-1.18 1.8 1.8 0 0 0 .56-1c0-.42-.3-.63-.91-.63a4.4 4.4 0 0 0 -2.82 1.31 11.39 11.39 0 0 0 -2.62 3.59 14.32 14.32 0 0 0 -1.41 4.9v15.33a7.21 7.21 0 0 0 .31 2.55 1.79 1.79 0 0 0 1.36 1 17.49 17.49 0 0 0 3.55.26v2h-15.95v-2a13.85 13.85 0 0 0 3.28-.27 1.66 1.66 0 0 0 1.22-1 8.67 8.67 0 0 0 .25-2.5l-.02-20.75a4.54 4.54 0 0 0 -.41-2.4 1.85 1.85 0 0 0 -1.6-.6h-2.37v-2.09l8.22-1.38h1.95v6.56h.07a21.28 21.28 0 0 1 3.49-4.94 6.78 6.78 0 0 1 5.09-2 5.06 5.06 0 0 1 3.91 1.47z"/><path d="m406.49 57.28a13.17 13.17 0 0 1 -2.73 1.32 11.32 11.32 0 0 1 -3.62.48 5.16 5.16 0 0 1 -3.17-.85c-.72-.56-1.14-1.76-1.28-3.62a22.43 22.43 0 0 1 -5 3.36 12.56 12.56 0 0 1 -5.44 1.14 10.31 10.31 0 0 1 -6.25-1.79 6 6 0 0 1 -2.39-5.2q0-4.87 5-8.49t14.15-5.05v-4a8.22 8.22 0 0 0 -1.41-5.3c-.95-1.16-2.59-1.75-4.91-1.75a10.23 10.23 0 0 0 -4.39.89c-1.3.6-1.95 1.21-2 1.81a1.41 1.41 0 0 0 .66 1 5.77 5.77 0 0 1 1 1.05 2.62 2.62 0 0 1 .37 1.57 3.22 3.22 0 0 1 -.84 2.33 3.08 3.08 0 0 1 -2.37.86 3.37 3.37 0 0 1 -2.54-1 3.79 3.79 0 0 1 -.93-2.72 6.48 6.48 0 0 1 1.44-4 10 10 0 0 1 4.32-3.06 18.93 18.93 0 0 1 7.08-1.17q5.29 0 7.8 2.18c1.67 1.45 2.49 4 2.49 7.54l-.05 16.51a8.07 8.07 0 0 0 .59 3.73 2 2 0 0 0 1.91 1 5 5 0 0 0 1.95-.48zm-22.22-3.15a5.94 5.94 0 0 0 4 1.22 8.6 8.6 0 0 0 3.73-.82 22.57 22.57 0 0 0 3.67-2.22v-11.5q-6.48 1.38-9.66 3.7a7.14 7.14 0 0 0 -3.19 6 4.63 4.63 0 0 0 1.45 3.62z"/><path d="m420.24 58.85a22.66 22.66 0 0 1 -2.75-.91 7.74 7.74 0 0 0 -2.44-.64 1.67 1.67 0 0 0 -1.08.32 3 3 0 0 0 -.73 1h-1.32l-.67-11.5h1.39a15.13 15.13 0 0 0 4 7.36 9.35 9.35 0 0 0 6.5 2.52 7.55 7.55 0 0 0 4.91-1.49 5.09 5.09 0 0 0 1.86-4.21 5 5 0 0 0 -1-3.24 7.89 7.89 0 0 0 -2.5-2.06 43.92 43.92 0 0 0 -4.31-1.9l-1.75-.63a19.81 19.81 0 0 1 -6.22-3.67 7 7 0 0 1 -2-5.27 8.46 8.46 0 0 1 3.11-6.92 12.53 12.53 0 0 1 8.2-2.52 14.35 14.35 0 0 1 2.72.21 23.25 23.25 0 0 1 2.36.64 8.45 8.45 0 0 0 1.81.42 1.27 1.27 0 0 0 1-.31 2.15 2.15 0 0 0 .38-.59 1.63 1.63 0 0 0 .11-.35h1.18l.47 10.25h-1.4q-1.86-8.08-8.34-8.1a7.56 7.56 0 0 0 -4.71 1.38 4.33 4.33 0 0 0 -1.85 3.62 4.66 4.66 0 0 0 1.83 3.74 13.85 13.85 0 0 0 4.28 2.42l1.87.63a22.61 22.61 0 0 1 7.69 4.06 7.71 7.71 0 0 1 2.46 6.06 9.16 9.16 0 0 1 -3.3 7.27 12.52 12.52 0 0 1 -8.44 2.77 13.6 13.6 0 0 1 -3.32-.36z"/><path d="m446.09 57.59c-1.32-1.11-2-3-2-5.64l.06-23.83h-5.08v-2.12q7.25-.74 9-10.7h2v10.59h7.74v2.23h-7.74l-.05 22.79a7.14 7.14 0 0 0 .86 4.07 3 3 0 0 0 2.61 1.23 5.66 5.66 0 0 0 2.3-.52 9.82 9.82 0 0 0 2-1.14l.76 1.67a25 25 0 0 1 -3.66 2.29 9.16 9.16 0 0 1 -4 .76 7.3 7.3 0 0 1 -4.8-1.68z"/><path d="m490.62 42.59-22.16-.06q.12 6.48 2.31 10.25t7.76 3.78a9.31 9.31 0 0 0 6.41-2.07 12.33 12.33 0 0 0 3.5-5.36l1.95.84a15 15 0 0 1 -4.55 6.82c-2 1.71-5.09 2.57-9.13 2.55q-7.45 0-11.1-4.34t-3.61-12.42q0-8.28 3.8-12.84c2.51-3 6.21-4.55 11.09-4.53q13.78 0 13.75 16.75zm-6.48-2.25q0-6.62-1.57-9.79t-5.64-3.18a6.72 6.72 0 0 0 -6.14 3.22q-2 3.24-2.32 9.71z"/><path d="m505.66 59.07a22.1 22.1 0 0 1 -2.75-.91 7.4 7.4 0 0 0 -2.44-.63 1.62 1.62 0 0 0 -1.08.31 2.87 2.87 0 0 0 -.73 1h-1.33l-.66-11.5h1.39a15 15 0 0 0 4 7.36 9.34 9.34 0 0 0 6.47 2.49 7.56 7.56 0 0 0 4.92-1.49 5.14 5.14 0 0 0 1.86-4.21 5 5 0 0 0 -1-3.24 7.89 7.89 0 0 0 -2.5-2.06 42.36 42.36 0 0 0 -4.32-1.89l-1.74-.64a19.81 19.81 0 0 1 -6.24-3.66 7 7 0 0 1 -2-5.27 8.5 8.5 0 0 1 3.12-6.92 12.51 12.51 0 0 1 8.2-2.52 14.17 14.17 0 0 1 2.71.21c.7.15 1.49.36 2.37.64a8.45 8.45 0 0 0 1.81.42 1.28 1.28 0 0 0 1-.31 2.15 2.15 0 0 0 .38-.59 1.63 1.63 0 0 0 .11-.35h1.25l.46 10.25h-1.39q-1.86-8.08-8.34-8.1a7.54 7.54 0 0 0 -4.71 1.38 4.33 4.33 0 0 0 -1.85 3.62 4.65 4.65 0 0 0 1.76 3.73 14.09 14.09 0 0 0 4.28 2.42l1.88.63a22.61 22.61 0 0 1 7.69 4.06 7.72 7.72 0 0 1 2.46 6.07 9.13 9.13 0 0 1 -3.3 7.3 12.49 12.49 0 0 1 -8.4 2.76 13.55 13.55 0 0 1 -3.34-.36z"/></g><path d="m18.81 39.31h-6.63v18.09h-5.88l.11-42.67h11.21q8 0 12.1 3.07t4.09 9.05a11 11 0 0 1 -2.31 7.24 14 14 0 0 1 -6.94 4.19l11.44 19.16h-7zm-.67-4.52c3.09 0 5.43-.62 7-1.87s2.36-3.29 2.37-6.1c0-2.64-.79-4.55-2.37-5.73s-4.14-1.78-7.64-1.79h-5.27v15.48z" fill="#00a3dc"/><path d="m65.49 43.15-20.81-.06c.24 3.6 1.14 6.24 2.71 7.94a7.85 7.85 0 0 0 6.06 2.55 12.91 12.91 0 0 0 4.34-.67 17.55 17.55 0 0 0 4.15-2.15l2.47 3.41a18 18 0 0 1 -11.41 4.06q-6.82 0-10.61-4.49c-2.54-3-3.79-7.07-3.78-12.27a23.27 23.27 0 0 1 1.66-9 14.12 14.12 0 0 1 4.73-6.16 11.9 11.9 0 0 1 7.22-2.21q6.5 0 10 4.3t3.43 11.84c-.03.95-.07 1.92-.16 2.91zm-5.49-4.6q0-4.83-1.9-7.37a6.75 6.75 0 0 0 -5.75-2.56q-7 0-7.64 10.26h15.29z" fill="#00a3dc"/><path d="m96.26 25-11.17 32.57h-6.88l-11.21-32.69h6.19l8.51 27.6 8.55-27.54z" fill="#00a3dc"/><path d="m106 10.43a3.78 3.78 0 0 1 1.11 2.79 3.69 3.69 0 0 1 -1.11 2.78 4.36 4.36 0 0 1 -5.76 0 3.67 3.67 0 0 1 -1.1-2.76 3.77 3.77 0 0 1 1.12-2.79 3.81 3.81 0 0 1 2.85-1.1 3.9 3.9 0 0 1 2.89 1.08zm0 14.57-.08 32.64h-5.7l.06-32.64z" fill="#00a3dc"/><path d="m130.13 25.23a17.87 17.87 0 0 1 5.07 2.77l-2.42 3.59a19.49 19.49 0 0 0 -4.24-2.12 13 13 0 0 0 -4.24-.69 7.44 7.44 0 0 0 -4.4 1.13 3.68 3.68 0 0 0 -1.62 3.13 3.64 3.64 0 0 0 1.51 3.1 17.85 17.85 0 0 0 5.48 2.18 19.63 19.63 0 0 1 8.13 3.73 8.1 8.1 0 0 1 2.68 6.45 8.33 8.33 0 0 1 -3.77 7.36 15.84 15.84 0 0 1 -9.14 2.52 18 18 0 0 1 -12.31-4.31l3-3.46a14.77 14.77 0 0 0 9.16 3.19 8.77 8.77 0 0 0 5.11-1.32 4.18 4.18 0 0 0 1.9-3.62 4.76 4.76 0 0 0 -.67-2.7 5.56 5.56 0 0 0 -2.35-1.8 32 32 0 0 0 -4.89-1.65q-5.2-1.38-7.51-3.68a7.78 7.78 0 0 1 -2.31-5.82 7.56 7.56 0 0 1 1.53-4.61 9.81 9.81 0 0 1 4.22-3.21 15.16 15.16 0 0 1 6-1.13 18.08 18.08 0 0 1 6.08.97z" fill="#00a3dc"/><path d="m158.11 56.27a12.52 12.52 0 0 1 -7.32 2.21 8.63 8.63 0 0 1 -6.46-2.4c-1.55-1.59-2.31-3.9-2.31-6.91v-19.7h-5.69v-4.4h5.7v-7.36l5.7-.67v8.05h7.75l-.64 4.4h-7.12l-.05 19.44a6 6 0 0 0 .89 3.69 3.57 3.57 0 0 0 3 1.15 9.27 9.27 0 0 0 4.44-1.28z" fill="#00a3dc"/><path d="m184.19 53.15a4.12 4.12 0 0 0 2 1.46l-1.31 4a8.65 8.65 0 0 1 -4.09-1.44 6.47 6.47 0 0 1 -2.28-3.47q-3.3 4.89-9.73 4.87a10.44 10.44 0 0 1 -7.61-2.75 9.48 9.48 0 0 1 -2.77-7.13 9.34 9.34 0 0 1 3.77-8q3.75-2.78 10.62-2.76h5v-2.42q0-3.46-1.66-5a7.64 7.64 0 0 0 -5.14-1.5 29.12 29.12 0 0 0 -8.8 1.71l-1.41-4.15a32.73 32.73 0 0 1 11.28-2.2c3.83 0 6.7 1 8.59 2.84s2.84 4.56 2.83 8v14.92a5.18 5.18 0 0 0 .71 3.02zm-6.37-3.95v-7.5h-4.27q-9 0-9.06 6.67a6.08 6.08 0 0 0 1.41 4.4 5.61 5.61 0 0 0 4.21 1.5q4.89-.01 7.71-5.07z" fill="#00a3dc"/></svg>