<svg fill="none" height="258" viewBox="0 0 533 258" width="533" xmlns="http://www.w3.org/2000/svg"><g stroke="#e0e0e0" stroke-dasharray="2 5"><path d="m0-.5h220.661" transform="matrix(.00552678 -.999985 1 0 7.32922 220.657)"/><path d="m0-.5h220.661" transform="matrix(.00595109 -.999982 1 0 94.2386 220.657)"/><path d="m0-.5h220.661" transform="matrix(.00595081 -.999982 1 0 181.148 220.657)"/><path d="m0-.5h220.661" transform="matrix(.00595081 -.999982 1 0 268.058 220.657)"/><path d="m0-.5h220.661" transform="matrix(.00595081 -.999982 1 0 354.967 220.657)"/><path d="m0-.5h220.661" transform="matrix(.00595081 -.999982 1 0 441.877 220.657)"/><path d="m0-.5h220.661" transform="matrix(.00595081 -.999982 1 0 528.787 220.657)"/></g><g fill="#828282"><path d="m4.03147 243.21c.74 0 1.29666.297 1.67.89.38.587.57 1.44.57 2.56s-.19 1.977-.57 2.57c-.37334.593-.93.89-1.67.89s-1.3-.297-1.68-.89c-.37334-.593-.56-1.45-.56-2.57s.18666-1.973.56-2.56c.38-.593.94-.89 1.68-.89zm0 .73c-.43334 0-.75667.213-.97.64-.20667.427-.31 1.12-.31 2.08s.10333 1.657.31 2.09c.21333.427.53666.64.97.64.42666 0 .74666-.213.96-.64.21333-.433.32-1.13.32-2.09 0-.953-.10667-1.643-.32-2.07-.21334-.433-.53334-.65-.96-.65zm5.86617 1.66c.33996 0 .64996.08.92996.24s.5034.4.67.72c.1667.32.25.71.25 1.17 0 .473-.0966.893-.29 1.26-.1866.36-.4433.64-.77.84-.32.193-.6766.29-1.06996.29-.78 0-1.35-.287-1.71-.86-.36-.58-.54-1.38-.54-2.4 0-.727.1-1.363.3-1.91.20666-.553.5-.98.88-1.28.38-.307.83-.46 1.35-.46.50666 0 .96666.137 1.37996.41l-.36.61c-.3133-.193-.6566-.29-1.02996-.29-.48 0-.86.23-1.14.69s-.43334 1.077-.46 1.85c.41333-.587.95-.88 1.61-.88zm-.28 3.79c.38666 0 .68336-.147.88996-.44.2067-.293.31-.69.31-1.19 0-.953-.36-1.43-1.07996-1.43-.29334 0-.56334.083-.81.25-.24667.16-.45667.383-.63.67.02.733.13333 1.273.34 1.62.21333.347.54.52.98.52z"/><path d="m91.9897 243.236c.74 0 1.2966.297 1.67.89.38.587.57 1.44.57 2.56s-.19 1.977-.57 2.57c-.3734.594-.93.89-1.67.89s-1.3-.296-1.68-.89c-.3734-.593-.56-1.45-.56-2.57s.1866-1.973.56-2.56c.38-.593.94-.89 1.68-.89zm0 .73c-.4334 0-.7567.214-.97.64-.2067.427-.31 1.12-.31 2.08s.1033 1.657.31 2.09c.2133.427.5366.64.97.64.4266 0 .7466-.213.96-.64.2133-.433.32-1.13.32-2.09 0-.953-.1067-1.643-.32-2.07-.2134-.433-.5334-.65-.96-.65zm6.7308-.63v.69l-2.5 6.1-.84-.28 2.41-5.76h-2.96v-.75z"/><path d="m178.776 243.236c.74 0 1.297.297 1.67.89.38.587.57 1.44.57 2.56s-.19 1.977-.57 2.57c-.373.594-.93.89-1.67.89s-1.3-.296-1.68-.89c-.373-.593-.56-1.45-.56-2.57s.187-1.973.56-2.56c.38-.593.94-.89 1.68-.89zm0 .73c-.433 0-.756.214-.97.64-.206.427-.31 1.12-.31 2.08s.104 1.657.31 2.09c.214.427.537.64.97.64.427 0 .747-.213.96-.64.214-.433.32-1.13.32-2.09 0-.953-.106-1.643-.32-2.07-.213-.433-.533-.65-.96-.65zm6.437 2.47c.94.38 1.41.98 1.41 1.8 0 .367-.1.697-.3.99-.194.287-.467.514-.82.68-.354.16-.754.24-1.2.24-.454 0-.854-.08-1.2-.24-.347-.16-.617-.383-.81-.67-.187-.286-.28-.613-.28-.98 0-.413.11-.76.33-1.04.226-.28.556-.513.99-.7-.354-.18-.617-.396-.79-.65-.167-.26-.25-.563-.25-.91 0-.36.093-.67.28-.93.193-.26.443-.456.75-.59.313-.133.646-.2 1-.2.346 0 .673.064.98.19.313.127.566.32.76.58.193.254.29.56.29.92 0 .334-.094.62-.28.86-.187.24-.474.457-.86.65zm-.89-2.51c-.347 0-.624.09-.83.27-.2.18-.3.437-.3.77 0 .32.096.564.29.73.2.167.516.32.95.46l.17.06c.3-.173.516-.356.65-.55.133-.193.2-.43.2-.71 0-.313-.1-.563-.3-.75-.194-.186-.47-.28-.83-.28zm-.01 5.49c.413 0 .74-.106.98-.32.246-.213.37-.496.37-.85 0-.24-.047-.44-.14-.6-.094-.166-.244-.31-.45-.43-.207-.126-.497-.253-.87-.38l-.25-.09c-.334.16-.58.364-.74.61-.16.24-.24.54-.24.9 0 .367.12.654.36.86.24.2.566.3.98.3z"/><path d="m266.369 243.236c.74 0 1.296.297 1.67.89.38.587.57 1.44.57 2.56s-.19 1.977-.57 2.57c-.374.594-.93.89-1.67.89s-1.3-.296-1.68-.89c-.374-.593-.56-1.45-.56-2.57s.186-1.973.56-2.56c.38-.593.94-.89 1.68-.89zm0 .73c-.434 0-.757.214-.97.64-.207.427-.31 1.12-.31 2.08s.103 1.657.31 2.09c.213.427.536.64.97.64.426 0 .746-.213.96-.64.213-.433.32-1.13.32-2.09 0-.953-.107-1.643-.32-2.07-.214-.433-.534-.65-.96-.65zm5.278-.73c.707 0 1.243.234 1.61.7.367.46.55 1.094.55 1.9 0 .914-.123 1.65-.37 2.21-.247.554-.623.997-1.13 1.33-.507.327-1.193.617-2.06.87l-.21-.69c.893-.253 1.577-.596 2.05-1.03.48-.433.737-1.01.77-1.73-.153.24-.36.434-.62.58-.26.147-.553.22-.88.22-.347 0-.66-.086-.94-.26-.28-.18-.503-.43-.67-.75-.16-.326-.24-.706-.24-1.14 0-.453.097-.846.29-1.18.193-.333.45-.586.77-.76.327-.18.687-.27 1.08-.27zm-.1 3.64c.527 0 .97-.276 1.33-.83.013-.74-.08-1.27-.28-1.59-.193-.326-.503-.49-.93-.49-.393 0-.697.13-.91.39s-.32.63-.32 1.11c0 .467.1.82.3 1.06.2.234.47.35.81.35z"/><path d="m354.64 243.336v6.69h-.92v-5.71l-1.56.95-.4-.65 2.07-1.28zm3.886-.1c.74 0 1.297.297 1.67.89.38.587.57 1.44.57 2.56s-.19 1.977-.57 2.57c-.373.594-.93.89-1.67.89s-1.3-.296-1.68-.89c-.373-.593-.56-1.45-.56-2.57s.187-1.973.56-2.56c.38-.593.94-.89 1.68-.89zm0 .73c-.433 0-.756.214-.97.64-.206.427-.31 1.12-.31 2.08s.104 1.657.31 2.09c.214.427.537.64.97.64.427 0 .747-.213.96-.64.214-.433.32-1.13.32-2.09 0-.953-.106-1.643-.32-2.07-.213-.433-.533-.65-.96-.65z"/><path d="m442.75 243.336v6.69h-.92v-5.71l-1.56.95-.4-.65 2.07-1.28zm4.189 0v6.69h-.92v-5.71l-1.56.95-.4-.65 2.07-1.28z"/><path d="m526.423 243.31v6.69h-.92v-5.71l-1.56.95-.4-.65 2.07-1.28zm3.376-.1c.4 0 .75.08 1.05.24.307.16.544.38.71.66.167.273.25.583.25.93 0 .407-.093.797-.28 1.17-.18.373-.46.777-.84 1.21s-.956 1.037-1.73 1.81h3.01l-.11.77h-3.95v-.73c.894-.927 1.527-1.603 1.9-2.03.374-.433.64-.81.8-1.13s.24-.663.24-1.03c0-.347-.1-.617-.3-.81-.2-.2-.466-.3-.8-.3-.273 0-.513.057-.72.17-.206.113-.426.3-.66.56l-.6-.48c.274-.34.577-.593.91-.76.334-.167.707-.25 1.12-.25z"/></g><path d="m9.10278 130.697 85.13602-40.7369 86.0232-14.1447 86.022 11.3158 88.684 14.7108 84.249 4.526 90.457 14.145" stroke="#ffb07c"/><path d="m6.44226 157.289 86.90964-20.934 87.7961-87.6968 85.136 26.0262 85.136 61.6706 86.91-7.355 90.457-18.671" stroke="#00b0f2"/></svg>