<svg fill="none" height="257" viewBox="0 0 1167 257" width="1167" xmlns="http://www.w3.org/2000/svg"><g fill="#828282"><path d="m6.8284 242.21c.74 0 1.29666.297 1.67.89.38.587.57 1.44.57 2.56s-.19 1.977-.57 2.57c-.37334.593-.93.89-1.67.89s-1.3-.297-1.68-.89c-.37334-.593-.56001-1.45-.56001-2.57s.18667-1.973.56001-2.56c.38-.593.94-.89 1.68-.89zm0 .73c-.43334 0-.75667.213-.97.64-.20667.427-.31 1.12-.31 2.08s.10333 1.657.31 2.09c.21333.427.53666.64.97.64.42666 0 .74666-.213.96-.64.21333-.433.31999-1.13.31999-2.09 0-.953-.10666-1.643-.31999-2.07-.21334-.433-.53334-.65-.96-.65zm5.8662 1.66c.34 0 .65.08.93.24s.5033.4.67.72c.1666.32.25.71.25 1.17 0 .473-.0967.893-.29 1.26-.1867.36-.4434.64-.77.84-.32.193-.6767.29-1.07.29-.78 0-1.35-.287-1.71-.86-.36-.58-.54-1.38-.54-2.4 0-.727.1-1.363.3-1.91.2066-.553.5-.98.88-1.28.38-.307.83-.46 1.35-.46.5066 0 .9666.137 1.38.41l-.36.61c-.3134-.193-.6567-.29-1.03-.29-.48 0-.86.23-1.14.69s-.4334 1.077-.46 1.85c.4133-.587.95-.88 1.61-.88zm-.28 3.79c.3866 0 .6833-.147.89-.44.2066-.293.31-.69.31-1.19 0-.953-.36-1.43-1.08-1.43-.2934 0-.5634.083-.81.25-.2467.16-.4567.383-.63.67.02.733.1333 1.273.34 1.62.2133.347.54.52.98.52z"/><path d="m199.2 242.236c.74 0 1.297.297 1.67.89.38.587.57 1.44.57 2.56s-.19 1.977-.57 2.57c-.373.594-.93.89-1.67.89s-1.3-.296-1.68-.89c-.373-.593-.56-1.45-.56-2.57s.187-1.973.56-2.56c.38-.593.94-.89 1.68-.89zm0 .73c-.433 0-.756.214-.97.64-.206.427-.31 1.12-.31 2.08s.104 1.657.31 2.09c.214.427.537.64.97.64.427 0 .747-.213.96-.64.214-.433.32-1.13.32-2.09 0-.953-.106-1.643-.32-2.07-.213-.433-.533-.65-.96-.65zm6.731-.63v.69l-2.5 6.1-.84-.28 2.41-5.76h-2.96v-.75z"/><path d="m391.144 242.236c.74 0 1.297.297 1.67.89.38.587.57 1.44.57 2.56s-.19 1.977-.57 2.57c-.373.594-.93.89-1.67.89s-1.3-.296-1.68-.89c-.373-.593-.56-1.45-.56-2.57s.187-1.973.56-2.56c.38-.593.94-.89 1.68-.89zm0 .73c-.433 0-.757.214-.97.64-.207.427-.31 1.12-.31 2.08s.103 1.657.31 2.09c.213.427.537.64.97.64.427 0 .747-.213.96-.64.213-.433.32-1.13.32-2.09 0-.953-.107-1.643-.32-2.07-.213-.433-.533-.65-.96-.65zm6.436 2.47c.94.38 1.41.98 1.41 1.8 0 .367-.1.697-.3.99-.193.287-.467.514-.82.68-.353.16-.753.24-1.2.24-.453 0-.853-.08-1.2-.24s-.617-.383-.81-.67c-.187-.286-.28-.613-.28-.98 0-.413.11-.76.33-1.04.227-.28.557-.513.99-.7-.353-.18-.617-.396-.79-.65-.167-.26-.25-.563-.25-.91 0-.36.093-.67.28-.93.193-.26.443-.456.75-.59.313-.133.647-.2 1-.2.347 0 .673.064.98.19.313.127.567.32.76.58.193.254.29.56.29.92 0 .334-.093.62-.28.86s-.473.457-.86.65zm-.89-2.51c-.347 0-.623.09-.83.27-.2.18-.3.437-.3.77 0 .32.097.564.29.73.2.167.517.32.95.46l.17.06c.3-.173.517-.356.65-.55.133-.193.2-.43.2-.71 0-.313-.1-.563-.3-.75-.193-.186-.47-.28-.83-.28zm-.01 5.49c.413 0 .74-.106.98-.32.247-.213.37-.496.37-.85 0-.24-.047-.44-.14-.6-.093-.166-.243-.31-.45-.43-.207-.126-.497-.253-.87-.38l-.25-.09c-.333.16-.58.364-.74.61-.16.24-.24.54-.24.9 0 .367.12.654.36.86.24.2.567.3.98.3z"/><path d="m583.893 242.236c.74 0 1.297.297 1.67.89.38.587.57 1.44.57 2.56s-.19 1.977-.57 2.57c-.373.594-.93.89-1.67.89s-1.3-.296-1.68-.89c-.373-.593-.56-1.45-.56-2.57s.187-1.973.56-2.56c.38-.593.94-.89 1.68-.89zm0 .73c-.433 0-.757.214-.97.64-.207.427-.31 1.12-.31 2.08s.103 1.657.31 2.09c.213.427.537.64.97.64.427 0 .747-.213.96-.64.213-.433.32-1.13.32-2.09 0-.953-.107-1.643-.32-2.07-.213-.433-.533-.65-.96-.65zm5.278-.73c.707 0 1.244.234 1.61.7.367.46.55 1.094.55 1.9 0 .914-.123 1.65-.37 2.21-.246.554-.623.997-1.13 1.33-.506.327-1.193.617-2.06.87l-.21-.69c.894-.253 1.577-.596 2.05-1.03.48-.433.737-1.01.77-1.73-.153.24-.36.434-.62.58-.26.147-.553.22-.88.22-.346 0-.66-.086-.94-.26-.28-.18-.503-.43-.67-.75-.16-.326-.24-.706-.24-1.14 0-.453.097-.846.29-1.18.194-.333.45-.586.77-.76.327-.18.687-.27 1.08-.27zm-.1 3.64c.527 0 .97-.276 1.33-.83.014-.74-.08-1.27-.28-1.59-.193-.326-.503-.49-.93-.49-.393 0-.696.13-.91.39-.213.26-.32.63-.32 1.11 0 .467.1.82.3 1.06.2.234.47.35.81.35z"/><path d="m777.321 242.336v6.69h-.92v-5.71l-1.56.95-.4-.65 2.07-1.28zm3.887-.1c.74 0 1.296.297 1.67.89.38.587.57 1.44.57 2.56s-.19 1.977-.57 2.57c-.374.594-.93.89-1.67.89s-1.3-.296-1.68-.89c-.374-.593-.56-1.45-.56-2.57s.186-1.973.56-2.56c.38-.593.94-.89 1.68-.89zm0 .73c-.434 0-.757.214-.97.64-.207.427-.31 1.12-.31 2.08s.103 1.657.31 2.09c.213.427.536.64.97.64.426 0 .746-.213.96-.64.213-.433.32-1.13.32-2.09 0-.953-.107-1.643-.32-2.07-.214-.433-.534-.65-.96-.65z"/><path d="m970.587 242.336v6.69h-.92v-5.71l-1.56.95-.4-.65 2.07-1.28zm4.19 0v6.69h-.92v-5.71l-1.56.95-.4-.65 2.07-1.28z"/><path d="m1157.59 242.31v6.69h-.92v-5.71l-1.56.95-.4-.65 2.07-1.28zm3.38-.1c.4 0 .75.08 1.05.24s.54.38.71.66c.16.273.25.583.25.93 0 .407-.1.797-.28 1.17s-.46.777-.84 1.21-.96 1.037-1.73 1.81h3.01l-.11.77h-3.95v-.73c.89-.927 1.52-1.603 1.9-2.03.37-.433.64-.81.8-1.13s.24-.663.24-1.03c0-.347-.1-.617-.3-.81-.2-.2-.47-.3-.8-.3-.28 0-.52.057-.72.17-.21.113-.43.3-.66.56l-.6-.48c.27-.34.57-.593.91-.76.33-.167.7-.25 1.12-.25z"/></g><path d="m9.5 130.5 192.102-41.539 189.503-14.1446 189.503 11.3157 195.364 14.7109 185.596 4.526 199.272 14.144" stroke="#ffb07c"/><g stroke="#e0e0e0" stroke-dasharray="2 6" stroke-linecap="round"><path d="m9.5.5v219"/><path d="m201.5.5v219"/><path d="m393.5.5v219"/><path d="m585.5.5v219"/><path d="m777.5.5v219"/><path d="m969.5.5v219"/><path d="m1161.5.5v219"/></g><path d="m11 212 109-14 80-14 106 14c27-25 81.8-76.4 85-82s30.667-64.3333 44-93l35-8 53 23 65 146 51-40 65 34 95-116 108 116 253 34" stroke="#a0cf8a"/></svg>